<?xml version="1.0" standalone="no"?><!DOCTYPE svg PUBLIC "-//W3C//DTD SVG 1.1//EN" "http://www.w3.org/Graphics/SVG/1.1/DTD/svg11.dtd"><svg t="1692252735976" class="icon" viewBox="0 0 1024 1024" version="1.1" xmlns="http://www.w3.org/2000/svg" p-id="7781" xmlns:xlink="http://www.w3.org/1999/xlink" width="200" height="200"><path d="M512 1024c282.7776 0 512-229.2224 512-512C1024 229.2224 794.7776 0 512 0 229.2224 0 0 229.2224 0 512c0 282.7776 229.2224 512 512 512z" fill="#ffffff" p-id="7782"></path><path d="M819.541333 196.266667L552.8576 393.5744l49.595733-116.292267L819.541333 196.266667z" fill="#E17726" p-id="7783"></path><path d="M204.4416 196.266667l264.2944 199.168-47.223467-118.152534-217.088-81.015466zM723.524267 653.7728l-70.9632 108.373333 151.927466 41.8304 43.52-147.848533-124.484266-2.3552zM176.213333 656.145067l43.264 147.848533 151.671467-41.813333-70.638933-108.373334-124.296534 2.338134z" fill="#E27625" p-id="7784" data-spm-anchor-id="a313x.search_index.0.i4.58773a818HJ3Bv" class=""></path><path d="M362.922667 470.6816l-42.171734 63.658667 150.340267 6.843733-5.051733-161.792-103.1168 91.2896zM661.009067 470.664533l-104.721067-93.1328-3.362133 163.652267 150.357333-6.843733-42.274133-63.658667zM371.131733 762.180267l90.9824-43.946667-78.336-61.064533-12.6464 105.0112zM561.834667 718.2336l90.794666 43.946667-12.458666-105.0112-78.336 61.064533z" fill="#E27625" p-id="7785"></path><path d="M652.561067 762.180267l-90.811734-43.946667 7.3728 58.862933-0.699733 25.088 84.138667-40.004266zM371.131733 762.180267l84.394667 40.004266-0.512-24.9856 7.099733-58.88-90.9824 43.861334z" fill="#D5BFB2" p-id="7786"></path><path d="M457.130667 618.257067l-75.434667-22.101334 53.248-24.456533 22.186667 46.557867zM566.8352 618.257067l22.186667-46.557867 53.538133 24.456533-75.7248 22.101334z" fill="#233447" p-id="7787"></path><path d="M371.114667 762.180267l13.192533-108.373334-83.882667 2.3552 70.690134 106.018134zM639.675733 653.7728l12.936534 108.373333 70.946133-105.9328-83.882667-2.440533zM703.214933 534.357333l-150.357333 6.826667 13.994667 77.090133 22.152533-46.557866 53.5552 24.456533 60.654933-61.832533zM381.661867 596.155733l53.282133-24.456533 22.152533 46.557867 13.9776-77.090134-150.357333-6.826666 60.945067 61.815466z" fill="#CC6228" p-id="7788"></path><path d="M320.750933 534.357333l63.061334 122.845867-2.133334-61.0304-60.928-61.832533zM642.525867 596.155733l-2.372267 61.0304 63.044267-122.862933-60.672 61.832533zM471.108267 541.166933l-13.9776 77.073067 17.681066 91.0336 3.9424-119.978667-7.645866-48.128zM552.874667 541.166933l-7.389867 47.872 3.703467 120.2176 17.664-91.0336-13.994667-77.056z" fill="#E27525" p-id="7789"></path><path d="M566.8352 618.24l-17.664 91.0336 12.663467 8.942933 78.336-61.013333 2.372266-61.0304-75.707733 22.0672zM381.678933 596.224l2.116267 61.0304 78.336 61.0304 12.663467-8.942933-17.664-91.0848-75.434667-22.016z" fill="#F5841F" p-id="7790"></path><path d="M568.4224 802.133333l0.785067-24.968533-6.8608-5.802667h-100.744534l-6.587733 5.802667 0.512 24.9856-84.394667-39.9872 29.525334 24.200533 59.886933 41.301334h102.570667l60.142933-41.301334 29.2864-24.200533L568.405333 802.133333z" fill="#C0AC9D" p-id="7791"></path><path d="M561.834667 718.2336l-12.680534-8.942933H474.794667l-12.663467 8.942933-7.202133 58.862933 6.587733-5.802666h100.7616l6.8608 5.802666-7.304533-58.88z" fill="#161616" p-id="7792"></path><path d="M830.856533 406.4768L853.333333 297.557333 819.541333 196.266667l-257.706666 190.737066 99.208533 83.6608 140.049067 40.789334 30.8224-36.010667-13.448534-9.745067 21.367467-19.490133-16.349867-12.629333 21.3504-16.298667-13.9776-10.8032zM170.666667 297.557333l22.698666 108.919467-14.523733 10.786133 21.623467 16.298667-16.349867 12.629333 21.367467 19.490134-13.4656 9.728 30.8736 36.0448 140.066133-40.789334 99.208533-83.6608L204.458667 196.266667 170.666667 297.557333z" fill="#763E1A" p-id="7793"></path><path d="M801.058133 511.453867l-140.049066-40.789334 42.205866 63.658667-63.044266 122.88 83.3536-1.058133h124.433066l-46.8992-144.6912zM362.9568 470.664533l-140.049067 40.789334-46.6944 144.622933h124.245334l83.336533 1.058133-63.044267-122.811733 42.205867-63.658667zM552.8576 541.166933l8.96-154.180266 40.618667-109.704534H421.495467l40.618666 109.704534 8.96 154.180266 3.362134 48.401067 0.256 119.7056h74.3936l0.273066-119.7056 3.4816-48.401067z" fill="#F5841F" p-id="7794"></path></svg>