<?xml version="1.0" encoding="UTF-8"?>
<svg width="32px" height="32px" viewBox="0 0 32 32" version="1.1" xmlns="http://www.w3.org/2000/svg" xmlns:xlink="http://www.w3.org/1999/xlink">
    <title>授权管理</title>
    <g id="DAPP整合" stroke="none" stroke-width="1" fill="none" fill-rule="evenodd">
        <g id="未链接钱包" transform="translate(-172.000000, -285.000000)">
            <g id="授权管理" transform="translate(134.000000, 266.000000)">
                <g transform="translate(38.000000, 19.000000)">
                    <rect id="矩形" x="0" y="0" width="32" height="32"></rect>
                    <g id="编组" transform="translate(2.000000, 1.000000)" fill-rule="nonzero">
                        <path d="M3.3705314,0 L15.0513973,0 C15.0548908,1.29268766 15.0458196,2.58537533 15.0561237,3.87809234 C15.106617,5.23923955 15.7623843,6.69694055 17.0574205,7.28574549 C17.4920447,7.48014476 17.9750779,7.51628271 18.4452235,7.51067561 C19.8272139,7.51126274 21.2088814,7.50832708 22.590813,7.51214344 C22.5931615,9.99356711 22.592868,12.4753137 22.590813,14.9570309 C21.2378857,14.8193192 19.8448278,14.9385069 18.5664662,15.4210411 C16.8632561,16.0527066 15.3752885,17.2464332 14.3912265,18.7740616 C11.4646103,18.7796394 8.53799411,18.7725938 5.61140725,18.777555 C5.02204454,18.7731515 4.46054123,19.0879422 4.11665824,19.5592621 C3.73490527,20.0611128 3.65884237,20.761825 3.87966257,21.3468136 C4.15420531,22.0369281 4.86489877,22.5366945 5.61313929,22.5284747 C8.09805639,22.532291 10.5830322,22.5290618 13.0679787,22.5299425 C12.8932483,24.5180582 13.381595,26.5701125 14.5385966,28.2075932 C11.0052973,28.2080336 7.47193925,28.2080336 3.93834637,28.2075932 C3.46174229,28.2134645 2.9989358,28.0619552 2.57755144,27.849032 C1.73501759,27.4196626 1.0041268,26.7631027 0.504888797,25.9584682 C0.183639737,25.4630172 -0.00403688126,24.8786744 0.00271513224,24.2857889 C0.00157022561,17.5513013 0.00303805463,10.8167843 0.00212800063,4.0819738 C-0.0395583436,2.9399441 0.535713206,1.85219473 1.33209852,1.06461639 C1.88913963,0.525746999 2.58013482,0.0723639708 3.37038461,0 M5.32952536,11.2908931 C4.69430768,11.3851571 4.13286308,11.8397144 3.88735399,12.4299871 C3.64803915,13.0387546 3.73789964,13.7773074 4.15634834,14.2879651 C4.50695398,14.7410839 5.06552164,15.0288959 5.64229037,15.0197953 C9.41020747,15.0209402 13.1785062,15.0221438 16.9467462,15.0192082 C17.8432962,15.0283381 18.669361,14.2971244 18.786758,13.412317 C18.9914321,12.3368974 18.0614156,11.2583073 16.9763377,11.2677601 C13.256837,11.2624759 9.53732146,11.267173 5.81784272,11.2654116 C5.65453207,11.2650887 5.49069299,11.2650887 5.32949601,11.2909812 L5.32952536,11.2908931 Z M16.9461297,0 L17.2447742,0 C18.0332626,0.140940943 18.6220382,0.736233681 19.2243178,1.21753482 C20.2697643,2.12406602 21.3650877,3.00270847 22.2058602,4.11153587 C22.5376776,4.5285461 22.6419522,5.06445047 22.5908424,5.58602884 C21.1113881,5.58925806 19.6319339,5.58837736 18.1527439,5.58635176 C17.9040643,5.59192951 17.6776076,5.45274996 17.531089,5.25893782 C17.166627,4.82695574 16.9769835,4.2601976 16.9475682,3.70051439 C16.9440748,2.46686281 16.9469811,1.2335048 16.9461004,0.000117426322 L16.9461297,0 Z" id="形状" fill="#377FFC"></path>
                        <path d="M21.4305529,19.9708413 C20.0093421,19.9708413 18.8531038,21.1270502 18.8531038,22.5482904 C18.8531038,23.9694131 20.0093128,25.125622 21.4305529,25.125622 C22.8516756,25.125622 24.0080019,23.9694131 24.0080019,22.5482904 C24.00809,21.1270796 22.8517637,19.9708413 21.4305529,19.9708413 Z M25.2340208,25.2511801 C25.7780863,24.4877622 26.0995434,23.5550743 26.0995434,22.5482904 C26.0995434,19.9738063 24.005125,17.8794198 21.4306703,17.8794198 C18.8562156,17.8794198 16.7617998,19.9739238 16.7617998,22.5482904 C16.7617998,23.5576283 17.0847809,24.4923418 17.6314885,25.2569046 L15.5995434,28.3602474 L18.1171637,28.1692535 L18.9912559,29.960504 L20.4929037,27.122574 C20.795981,27.1845458 21.1095387,27.2171903 21.4306703,27.2171903 C21.7542679,27.2171903 22.070086,27.1840173 22.375277,27.1210475 L23.8777468,29.960504 L24.751839,28.1692535 L27.2694593,28.3602474 L25.2340208,25.2511801 Z M18.2406669,22.5482904 C18.2406669,20.7894202 19.6716827,19.3584043 21.4305529,19.3584043 C23.1894231,19.3584043 24.6204389,20.7894202 24.6204389,22.5482904 C24.6204389,24.3070725 23.189335,25.7380883 21.4305529,25.7380883 C19.6716827,25.7380883 18.2406669,24.3070725 18.2406669,22.5482904 Z" id="形状" fill="#ABC6F6"></path>
                    </g>
                </g>
            </g>
        </g>
    </g>
</svg>