<?xml version="1.0" encoding="UTF-8"?>
<svg width="20px" height="20px" viewBox="0 0 20 20" version="1.1" xmlns="http://www.w3.org/2000/svg" xmlns:xlink="http://www.w3.org/1999/xlink">
    <title>授权管理灰</title>
    <g id="DAPP整合" stroke="none" stroke-width="1" fill="none" fill-rule="evenodd">
        <g id="点击dapp侧边栏" transform="translate(-16.000000, -324.000000)" fill-rule="nonzero">
            <g id="批量转账备份-2" transform="translate(0.000000, 312.000000)">
                <g id="授权管理灰" transform="translate(16.000000, 12.000000)">
                    <rect id="矩形" x="0" y="0" width="20" height="20"></rect>
                    <g id="编组" transform="translate(2.000000, 1.000000)" fill="#D9D9D9">
                        <path d="M2.13452174,0 L9.53189008,0 C9.53410243,0.818645368 9.52835775,1.63729074 9.53488326,2.4559547 C9.56686014,3.31795477 9.98215061,4.24110133 10.8022833,4.61398524 C11.0775261,4.73709624 11.3834259,4.75998202 11.6811642,4.7564311 C12.556364,4.75680292 13.4313593,4.7549438 14.306522,4.75736066 C14.3080093,6.32881992 14.3078234,7.90048368 14.306522,9.47212885 C13.4497274,9.38491748 12.5675187,9.4603978 11.7579459,9.76598153 C10.679321,10.1660086 9.7370069,10.921983 9.11381093,11.8894138 C7.26041596,11.8929462 5.40702099,11.8884843 3.55364462,11.8916262 C3.18040747,11.8888375 2.82481339,12.0881911 2.60703595,12.3866729 C2.36527584,12.7044897 2.31710602,13.1482433 2.4569491,13.5187103 C2.6308141,13.9557525 3.08088872,14.2722493 3.5547415,14.2670438 C5.12841311,14.2694606 6.70212191,14.2674156 8.27581211,14.2679733 C8.16515723,15.5270259 8.47442202,16.8265701 9.20713881,17.8635692 C6.96953788,17.8638481 4.73189977,17.8638481 2.49411293,17.8635692 C2.19228463,17.8672875 1.89919419,17.7713382 1.63233596,17.6364962 C1.09876821,17.3645811 0.635902841,16.9487887 0.319740713,16.4392222 C0.116297095,16.1254584 -0.00255651403,15.7554003 0.00171946441,15.3799322 C0.000994407201,11.1150527 0.00192396773,6.85015465 0.0013476402,2.58507065 C-0.0250518789,1.86183538 0.339261484,1.17297525 0.843603846,0.674210253 C1.19637207,0.332949991 1.63397198,0.0458273342 2.13442878,0 M3.37513181,7.1504027 C2.9728552,7.21009907 2.61729829,7.49796538 2.46182,7.87177885 C2.31026445,8.25730479 2.36717215,8.72502246 2.63217126,9.04841657 C2.85420609,9.33537191 3.20794106,9.51764014 3.57320257,9.51187686 C5.95938445,9.51260192 8.34580802,9.51336416 10.7321944,9.51150504 C11.29997,9.5172869 11.8231081,9.05421703 11.8974543,8.49387794 C12.0270722,7.81282612 11.4381027,7.12976645 10.7509343,7.13575282 C8.39540937,7.13240641 6.0398844,7.135381 3.68437801,7.13426553 C3.58095511,7.13406102 3.47719756,7.13406102 3.37511322,7.15045847 L3.37513181,7.1504027 Z M10.731804,0 L10.9209324,0 C11.4202737,0.0892564022 11.793139,0.466248971 12.1745563,0.771051869 C12.8366265,1.34514845 13.5302832,1.90158339 14.0627354,2.603792 C14.2728719,2.86788015 14.3389079,3.2072627 14.3065406,3.53757274 C13.3696179,3.53961777 12.4326953,3.53906004 11.4959399,3.53777724 C11.3384538,3.54130957 11.1950412,3.45316864 11.1022525,3.33042947 C10.8714426,3.05685981 10.7513434,2.69793789 10.732715,2.34349646 C10.7305026,1.56223802 10.7323431,0.781165488 10.7317854,7.43648425e-05 L10.731804,0 Z" id="形状"></path>
                        <path d="M13.5717416,12.6473217 C12.6717039,12.6473217 11.9394704,13.3795365 11.9394704,14.2795928 C11.9394704,15.1795747 12.6716853,15.9117896 13.5717416,15.9117896 C14.4717235,15.9117896 15.2040127,15.1795747 15.2040127,14.2795928 C15.2040684,13.3795551 14.4717792,12.6473217 13.5717416,12.6473217 Z M15.9804374,15.9913042 C16.3249883,15.5078397 16.5285621,14.9171784 16.5285621,14.2795928 C16.5285621,12.6491994 15.2021907,11.3228467 13.5718159,11.3228467 C11.9414411,11.3228467 10.6150698,12.6492738 10.6150698,14.2795928 C10.6150698,14.9187958 10.8196103,15.51074 11.1658344,15.9949295 L9.87902516,17.9602435 L11.4734074,17.8392891 L12.0269607,18.973669 L12.9779383,17.1764381 C13.1698739,17.2156841 13.3684467,17.2363576 13.5718159,17.2363576 C13.7767468,17.2363576 13.9767511,17.2153495 14.1700253,17.1754713 L15.1215235,18.973669 L15.6750768,17.8392891 L17.269459,17.9602435 L15.9804374,15.9913042 Z M11.5516206,14.2795928 C11.5516206,13.165719 12.4578678,12.2594719 13.5717416,12.2594719 C14.6856153,12.2594719 15.5918625,13.165719 15.5918625,14.2795928 C15.5918625,15.3934108 14.6855596,16.299658 13.5717416,16.299658 C12.4578678,16.299658 11.5516206,15.3934108 11.5516206,14.2795928 Z" id="形状"></path>
                    </g>
                </g>
            </g>
        </g>
    </g>
</svg>