<?xml version="1.0" encoding="UTF-8"?>
<svg width="18px" height="18px" viewBox="0 0 18 18" version="1.1" xmlns="http://www.w3.org/2000/svg" xmlns:xlink="http://www.w3.org/1999/xlink">
    <title>arrow</title>
    <defs>
        <path d="M12.8008158,9.14463395 C12.7702302,9.27671714 12.7034723,9.40212203 12.600542,9.5050523 L6.5901344,15.5154599 C6.29724118,15.8083532 5.82236744,15.8083532 5.52947423,15.5154599 C5.23658101,15.2225667 5.23658101,14.747693 5.52947423,14.4547998 L11.0118069,8.97246708 L5.53033009,3.49099026 C5.23743687,3.19809704 5.23743687,2.7232233 5.53033009,2.43033009 C5.8232233,2.13743687 6.29809704,2.13743687 6.59099026,2.43033009 L12.6013979,8.44073773 C12.7923106,8.63165039 12.8587832,8.8998802 12.8008158,9.14463395 L12.8008158,9.14463395 Z" id="path-1"></path>
    </defs>
    <g id="授权检测" stroke="none" stroke-width="1" fill="none" fill-rule="evenodd">
        <g id="点击取消授权2" transform="translate(-341.000000, -669.000000)">
            <g id="编组-7" transform="translate(16.000000, 516.000000)">
                <g id="付款地址备份-3" transform="translate(0.000000, 152.000000)">
                    <g id="arrow" transform="translate(325.000000, 1.000000)">
                        <rect id="矩形" x="0" y="0" width="18" height="18"></rect>
                        <mask id="mask-2" fill="white">
                            <use xlink:href="#path-1"></use>
                        </mask>
                        <use fill="#969799" xlink:href="#path-1"></use>
                    </g>
                </g>
            </g>
        </g>
    </g>
</svg>