<?xml version="1.0" standalone="no"?><!DOCTYPE svg PUBLIC "-//W3C//DTD SVG 1.1//EN" "http://www.w3.org/Graphics/SVG/1.1/DTD/svg11.dtd"><svg t="1694171829612" class="icon" viewBox="0 0 1024 1024" version="1.1" xmlns="http://www.w3.org/2000/svg" p-id="26135" xmlns:xlink="http://www.w3.org/1999/xlink" width="200" height="200"><path d="M896 1024H682.667a128 128 0 0 1-128-128V682.667a128 128 0 0 1 128-128H896a128 128 0 0 1 128 128V896a128 128 0 0 1-128 128zM682.667 640A42.667 42.667 0 0 0 640 682.667V896a42.667 42.667 0 0 0 42.667 42.667H896A42.667 42.667 0 0 0 938.667 896V682.667A42.667 42.667 0 0 0 896 640z m-341.334 384H128A128 128 0 0 1 0 896V682.667a128 128 0 0 1 128-128h213.333a128 128 0 0 1 128 128V896a128 128 0 0 1-128 128zM128 640a42.667 42.667 0 0 0-42.667 42.667V896A42.667 42.667 0 0 0 128 938.667h213.333A42.667 42.667 0 0 0 384 896V682.667A42.667 42.667 0 0 0 341.333 640z m768-170.667H682.667a128 128 0 0 1-128-128V128a128 128 0 0 1 128-128H896a128 128 0 0 1 128 128v213.333a128 128 0 0 1-128 128z m-213.333-384A42.667 42.667 0 0 0 640 128v213.333A42.667 42.667 0 0 0 682.667 384H896a42.667 42.667 0 0 0 42.667-42.667V128A42.667 42.667 0 0 0 896 85.333z m-341.334 384H128a128 128 0 0 1-128-128V128A128 128 0 0 1 128 0h213.333a128 128 0 0 1 128 128v213.333a128 128 0 0 1-128 128zM128 85.333A42.667 42.667 0 0 0 85.333 128v213.333A42.667 42.667 0 0 0 128 384h213.333A42.667 42.667 0 0 0 384 341.333V128a42.667 42.667 0 0 0-42.667-42.667z" p-id="26136" fill="#999999"></path></svg>