<?xml version="1.0" encoding="UTF-8"?>
<svg width="24px" height="24px" viewBox="0 0 24 24" version="1.1" xmlns="http://www.w3.org/2000/svg" xmlns:xlink="http://www.w3.org/1999/xlink">
    <title>Regular 1.5px/calendar</title>
    <g id="Regular-1.5px/calendar" stroke="none" stroke-width="1" fill="none" fill-rule="evenodd">
        <path d="M17,2.25 C17.4142132,2.25 17.75,2.58578643 17.75,3 L17.75,4 L19,4 C20.6568546,4 22,5.34314585 22,7 L22,19 C22,20.6568546 20.6568546,22 19,22 L5,22 C3.34314537,22 2,20.6568546 2,19 L2,7.00000048 C2,5.34314632 3.34314597,4 5,4 L6.25,4 L6.25,3 C6.25,2.58578643 6.58578634,2.25 7,2.25 C7.41421366,2.25 7.75,2.58578643 7.75,3 L7.75,4 L16.25,4 L16.25,3 C16.25,2.58578643 16.5857868,2.25 17,2.25 Z M20.5,11.75 L3.5,11.75 L3.5,19 C3.5,19.8284264 4.17157292,20.5 5,20.5 L19,20.5 C19.8284264,20.5 20.5,19.8284264 20.5,19 L20.5,11.75 Z M6.25,5.5 L5,5.5 C4.17157316,5.5 3.5,6.17157316 3.5,7.00000048 L3.5,7.00000048 L3.5,10.25 L20.5,10.25 L20.5,7 C20.5,6.17157269 19.8284264,5.5 19,5.5 L19,5.5 L17.75,5.5 L17.75,7 C17.75,7.41421366 17.4142132,7.75 17,7.75 C16.5857868,7.75 16.25,7.41421366 16.25,7 L16.25,7 L16.25,5.5 L7.75,5.5 L7.75,7 C7.75,7.41421366 7.41421366,7.75 7,7.75 C6.58578634,7.75 6.25,7.41421366 6.25,7 L6.25,7 L6.25,5.5 Z" id="Combined-Shape" fill="#999999"></path>
    </g>
</svg>