<?xml version="1.0" encoding="UTF-8"?>
<svg width="16px" height="16px" viewBox="0 0 16 16" version="1.1" xmlns="http://www.w3.org/2000/svg" xmlns:xlink="http://www.w3.org/1999/xlink">
    <title>清空</title>
    <g id="批量转账" stroke="none" stroke-width="1" fill="none" fill-rule="evenodd">
        <g id="01批量转账-复制不带数量的地址" transform="translate(-311.000000, -217.000000)">
            <g id="空投币种备份" transform="translate(16.000000, 212.000000)">
                <g id="清空" transform="translate(295.000000, 5.000000)">
                    <rect id="矩形" x="0" y="0" width="16" height="16"></rect>
                    <path d="M14.8869977,7.81730996 L13.5329438,5.15534289 C13.2951414,4.68861133 12.8230859,4.39934424 12.2995657,4.39934424 L10.2321046,4.39934424 C10.2125835,4.39934424 10.1966117,4.38337244 10.1966117,4.36385135 L10.1966117,0.999124973 C10.1966117,0.447210467 9.74762659,7.1942452e-14 9.19748673,7.1942452e-14 L7.60030649,7.1942452e-14 C7.04839198,7.1942452e-14 6.60118151,0.448985112 6.60118151,0.999124973 L6.60118151,4.36385135 C6.60118151,4.38337244 6.58520971,4.39934424 6.56568862,4.39934424 L4.49645289,4.39934424 C3.9729327,4.39934424 3.5008772,4.68861133 3.26307481,5.15534289 L1.9090209,7.81730996 C1.74575358,8.13852065 1.75995074,8.51474533 1.94806308,8.82175886 C2.13085148,9.11989917 2.44318895,9.30091294 2.78924467,9.3115608 C2.70406173,11.103952 2.10955575,12.9655543 1.18851514,14.2716928 C0.966684554,14.5875795 0.938290239,14.9957478 1.11575471,15.3382542 C1.29321918,15.6807607 1.64282419,15.893718 2.02969674,15.893718 L12.7041847,15.893718 C13.3253103,15.893718 13.8754502,15.4749019 14.0387175,14.875072 C14.3137874,13.8723977 14.5427166,12.9602303 14.560463,11.9486828 C14.5799841,11.0152197 14.4025197,10.1456438 14.0280696,9.3115608 C14.3652521,9.29203971 14.6687164,9.1128006 14.8479555,8.82175886 C15.0360678,8.51474533 15.050265,8.13852065 14.8869977,7.81730996 L14.8869977,7.81730996 Z M2.79456861,8.26806971 L4.14862252,5.60610264 C4.21605902,5.47477894 4.34915737,5.39314528 4.49645289,5.39314528 L6.56213933,5.39314528 C7.13002564,5.39314528 7.59143326,4.93173765 7.59143326,4.36385135 L7.59143326,0.999124973 C7.59143326,0.997350328 7.59498255,0.993801039 7.5967572,0.993801039 L9.19393744,0.993801039 C9.19571208,0.993801039 9.19926137,0.997350328 9.19926137,0.999124973 L9.19926137,4.36385135 C9.19926137,4.93173765 9.660669,5.39314528 10.2285553,5.39314528 L12.2942418,5.39314528 C12.4415373,5.39314528 12.5746356,5.47477894 12.6420721,5.60610264 L13.996126,8.26806971 C13.9996753,8.27339365 14.0049993,8.28581616 13.9943514,8.30356261 C13.9837035,8.32130905 13.971281,8.32130905 13.9641824,8.32130905 L2.82651221,8.32130905 C2.81941363,8.32130905 2.80699112,8.32130905 2.79634325,8.30356261 C2.78569538,8.28581616 2.79101932,8.27339365 2.79456861,8.26806971 Z M13.5684367,11.9309364 C13.5524649,12.827132 13.3395075,13.6754121 13.082184,14.6124246 C13.0360432,14.7810158 12.8816491,14.899917 12.7059593,14.899917 L10.4592591,14.899917 C10.659794,14.5041712 10.7875684,14.1190733 10.869202,13.8138344 C10.9952018,13.3400043 11.059089,12.8643995 11.0573144,12.4296116 C11.0555397,12.1261473 10.7822445,11.8954435 10.4823295,11.9433589 C10.2409778,11.9824011 10.0635133,12.1918092 10.0635133,12.4367101 C10.065288,13.1944834 9.81328844,14.1794112 9.30574006,14.899917 L6.10073171,14.899917 C6.3704777,14.5148191 6.56391398,14.1226226 6.69701233,13.8014119 C6.8744768,13.3701733 7.00580051,12.9194135 7.07323701,12.5147945 C7.12292706,12.2131049 6.88867396,11.938035 6.58343507,11.938035 C6.34208339,11.938035 6.13444996,12.1119502 6.09363313,12.3515272 C6.04394307,12.6461182 5.94633762,13.0205683 5.77952101,13.4234126 C5.6002819,13.8599752 5.28616978,14.4544812 4.79281855,14.9016916 L2.03147138,14.9016916 C2.02259816,14.9016916 2.01017564,14.9016916 1.99952778,14.8821706 C1.98887991,14.8626495 1.99597849,14.8537762 2.00130242,14.8466777 C2.5283719,14.0995522 2.97380772,13.1696384 3.28791984,12.1598656 C3.57541228,11.2352757 3.74400353,10.2627704 3.78482036,9.31511009 L12.917142,9.31511009 C13.3732257,10.1385452 13.5861831,10.9974733 13.5684367,11.9309364 Z" id="形状" fill="#999999" fill-rule="nonzero"></path>
                </g>
            </g>
        </g>
    </g>
</svg>