<?xml version="1.0" encoding="UTF-8"?>
<svg width="14px" height="14px" viewBox="0 0 14 14" version="1.1" xmlns="http://www.w3.org/2000/svg" xmlns:xlink="http://www.w3.org/1999/xlink">
    <title>复制备份</title>
    <g id="红包" stroke="none" stroke-width="1" fill="none" fill-rule="evenodd">
        <g id="03红包历史-我发出的点击进行中" transform="translate(-146.000000, -288.000000)">
            <g id="编组-3备份-2" transform="translate(0.000000, 285.000000)">
                <g id="编组-2" transform="translate(57.000000, 0.000000)">
                    <g id="复制备份" transform="translate(89.000000, 3.000000)">
                        <rect id="矩形" x="0" y="0" width="14" height="14"></rect>
                        <g id="复制" transform="translate(1.000000, 1.000000)" fill="#999999" fill-rule="nonzero">
                            <path d="M12.2018041,7.36924524 C11.8917967,7.36924524 11.6409393,7.62036947 11.6409393,7.93011009 L11.6409393,8.36910323 C11.6409393,8.63530026 11.4245847,8.85190676 11.1584025,8.85190676 L4.39358055,8.85190675 C4.12738353,8.85190675 3.91049543,8.63528543 3.91049543,8.36910322 L3.91049544,1.60426645 C3.91049544,1.33806943 4.12739836,1.12172971 4.39358057,1.12172971 L4.78301283,1.12172971 C5.09302024,1.12172971 5.34387769,0.870605483 5.34387769,0.560864854 C5.34387769,0.251124226 5.09302023,0 4.78301283,0 L4.39358057,0 C3.50846548,0 2.78878055,0.71969975 2.78878055,1.60425165 L2.78878055,8.36908843 C2.78878055,9.25392193 3.5084803,9.97362168 4.39358057,9.97362168 L11.1584173,9.97362168 C12.0429841,9.97362168 12.762669,9.25392193 12.762669,8.36908843 L12.762669,7.93009529 C12.762669,7.62036947 12.5118115,7.36924524 12.2018041,7.36924524 Z" id="路径" transform="translate(7.775725, 4.986811) scale(-1, -1) translate(-7.775725, -4.986811) "></path>
                            <path d="M8.29130869,2.74578528 L1.68257976,2.74578528 C0.754751023,2.74578528 0,3.50053631 0,4.42836504 L0,11.0368272 C0,11.9646559 0.754751023,12.719407 1.68257976,12.719407 L8.29130867,12.719407 C9.21913741,12.719407 9.97388844,11.9646559 9.97388844,11.0368272 L9.97388844,4.42836504 C9.97388844,3.50053631 9.21913743,2.74578528 8.29130869,2.74578528 Z M8.85217354,11.0368272 C8.85217354,11.3460194 8.60076772,11.597692 8.29130869,11.597692 L1.68257976,11.597692 C1.37312073,11.597692 1.12171491,11.3460194 1.12171491,11.0368272 L1.12171491,4.42836504 C1.12171491,4.11917278 1.37312073,3.86750019 1.68257976,3.86750019 L8.29130867,3.86750019 C8.6007677,3.86750019 8.85217354,4.1191728 8.85217354,4.42836504 L8.85217354,11.0368272 Z" id="形状"></path>
                        </g>
                    </g>
                </g>
            </g>
        </g>
    </g>
</svg>