<?xml version="1.0" encoding="UTF-8"?>
<svg width="32px" height="32px" viewBox="0 0 32 32" version="1.1" xmlns="http://www.w3.org/2000/svg" xmlns:xlink="http://www.w3.org/1999/xlink">
    <title>创建代币</title>
    <g id="DAPP整合" stroke="none" stroke-width="1" fill="none" fill-rule="evenodd">
        <g id="未链接钱包" transform="translate(-54.000000, -175.000000)">
            <g id="创建代币" transform="translate(16.000000, 156.000000)">
                <g transform="translate(38.000000, 19.000000)">
                    <rect id="矩形" x="0" y="0" width="32" height="32"></rect>
                    <polygon id="路径" fill-opacity="0.01" fill="#FFFFFF" fill-rule="nonzero" points="1 1 31 1 31 31 1 31"></polygon>
                    <path d="M23.5,18.1428571 C27.050402,18.1428571 29.9285714,21.0210266 29.9285714,24.5714286 C29.9285714,28.1218305 27.050402,31 23.5,31 C19.949598,31 17.0714286,28.1218305 17.0714286,24.5714286 C17.0714286,21.0210266 19.949598,18.1428571 23.5,18.1428571 Z" id="路径" fill="#ABC6F6" fill-rule="nonzero"></path>
                    <path d="M13.8828571,2.13785714 C14.5326676,1.77455321 15.3244752,1.77455321 15.9742857,2.13785714 L26.6885714,8.13357142 C27.3661295,8.51238881 27.7858357,9.22802056 27.7857143,10.0042857 L27.7878571,17.1485714 C26.484932,16.3941317 25.0055858,15.9978651 23.5,16 C22.075,16 20.7314286,16.3471429 19.5485714,16.9642857 L15.9485714,14.8064286 L15.9485714,9.19642858 L15.9335714,9.00785714 C15.8542402,8.51296761 15.4297524,8.14731076 14.9285714,8.14214286 C14.6534919,8.14665204 14.3914746,8.26027079 14.2001795,8.45799599 C14.0088844,8.6557212 13.9039871,8.9213503 13.9085714,9.19642858 L13.9085714,14.8064286 L7.98571428,18.3528571 L7.83571428,18.4621429 C7.46012709,18.7995873 7.36846549,19.3522267 7.615,19.7928571 L7.72214286,19.9492857 C8.03500888,20.3334928 8.58228541,20.4301783 9.00785714,20.1764286 L14.9285714,16.6321429 L17.68,18.28 C15.924013,19.9005346 14.9262832,22.181948 14.9285714,24.5714286 C14.9285714,26.3928572 15.4985714,28.0857143 16.4671429,29.4742857 L15.9742857,29.7485714 C15.3244752,30.1118753 14.5326676,30.1118753 13.8828571,29.7485714 L3.16857142,23.7528571 C2.49101332,23.3740397 2.07142856,22.658408 2.07142856,21.8821429 L2.07142856,10.0042857 C2.07142856,9.22802057 2.49101332,8.51238881 3.16857142,8.13357142 L13.8828571,2.13785714 Z" id="路径" fill="#3F80F7" fill-rule="nonzero"></path>
                    <path d="M23.5,20.2857142 C22.9825165,20.2855418 22.5388613,20.6552544 22.4457143,21.1642857 L22.4285714,21.3571429 L22.4285714,23.5 L20.2857143,23.5 C19.7307377,23.4989784 19.2668408,23.9219107 19.216696,24.4746182 C19.1665512,25.0273256 19.5467584,25.5268399 20.0928571,25.6257143 L20.2857143,25.6428571 L22.4285714,25.6428571 L22.4285714,27.7857142 C22.4275498,28.3406909 22.8504821,28.8045879 23.4031896,28.8547327 C23.9558971,28.9048775 24.4554114,28.5246702 24.5542857,27.9785714 L24.5714286,27.7857142 L24.5714286,25.6428571 L26.7142857,25.6428571 C27.2692623,25.6438787 27.7331592,25.2209464 27.783304,24.668239 C27.8334488,24.1155316 27.4532416,23.6160172 26.9071429,23.5171429 L26.7142857,23.5 L24.5714286,23.5 L24.5714286,21.3571429 C24.5714286,20.7654092 24.0917337,20.2857142 23.5,20.2857142 Z" id="路径" fill="#FFFFFF" fill-rule="nonzero"></path>
                </g>
            </g>
        </g>
    </g>
</svg>