<?xml version="1.0" encoding="UTF-8"?>
<svg width="20px" height="20px" viewBox="0 0 20 20" version="1.1" xmlns="http://www.w3.org/2000/svg" xmlns:xlink="http://www.w3.org/1999/xlink">
    <title>创建代币灰</title>
    <g id="DAPP整合" stroke="none" stroke-width="1" fill="none" fill-rule="evenodd">
        <g id="点击dapp侧边栏" transform="translate(-16.000000, -148.000000)">
            <g id="编组-2" transform="translate(0.000000, 136.000000)">
                <g id="创建代币灰" transform="translate(16.000000, 12.000000)">
                    <rect id="矩形" x="0" y="0" width="20" height="20"></rect>
                    <polygon id="路径" fill-opacity="0.01" fill="#FFFFFF" fill-rule="nonzero" points="0.625 0.625 19.375 0.625 19.375 19.375 0.625 19.375"></polygon>
                    <path d="M14.6875,11.3392857 C16.9065012,11.3392857 18.7053571,13.1381416 18.7053571,15.3571429 C18.7053571,17.5761441 16.9065012,19.375 14.6875,19.375 C12.4684988,19.375 10.6696429,17.5761441 10.6696429,15.3571429 C10.6696429,13.1381416 12.4684988,11.3392857 14.6875,11.3392857 Z" id="路径" fill="#D9D9D9" fill-rule="nonzero"></path>
                    <path d="M8.67678571,1.33616071 C9.08291726,1.10909576 9.57779703,1.10909576 9.98392858,1.33616071 L16.6803571,5.08348214 C17.103831,5.320243 17.3661473,5.76751285 17.3660714,6.25267858 L17.3674107,10.7178571 C16.5530825,10.2463323 15.6284911,9.99866567 14.6875,10 C13.796875,10 12.9571429,10.2169643 12.2178571,10.6026786 L9.96785714,9.25401786 L9.96785714,5.74776786 L9.95848214,5.62991071 C9.90890012,5.32060476 9.64359525,5.09206923 9.33035714,5.08883929 C9.15843243,5.09165753 8.99467164,5.16266924 8.87511219,5.2862475 C8.75555275,5.40982575 8.68999192,5.57584394 8.69285714,5.74776786 L8.69285714,9.25401786 L4.99107142,11.4705357 L4.89732142,11.5388393 C4.66257943,11.7497421 4.60529093,12.0951417 4.759375,12.3705357 L4.82633929,12.4683036 C5.02188055,12.708433 5.36392838,12.7688615 5.62991071,12.6102679 L9.33035714,10.3950893 L11.05,11.425 C9.95250811,12.4378341 9.32892698,13.8637175 9.33035714,15.3571429 C9.33035714,16.4955357 9.68660714,17.5535714 10.2919643,18.4214286 L9.98392858,18.5928571 C9.57779703,18.8199221 9.08291726,18.8199221 8.67678571,18.5928571 L1.98035714,14.8455357 C1.55688333,14.6087748 1.29464285,14.161505 1.29464285,13.6763393 L1.29464285,6.25267858 C1.29464285,5.76751286 1.55688332,5.32024301 1.98035714,5.08348214 L8.67678571,1.33616071 Z" id="路径" fill="#D9D9D9" fill-rule="nonzero"></path>
                    <path d="M14.6875,12.6785714 C14.3640728,12.6784636 14.0867883,12.909534 14.0285714,13.2276786 L14.0178571,13.3482143 L14.0178571,14.6875 L12.6785714,14.6875 C12.3317111,14.6868615 12.0417755,14.9511942 12.010435,15.2966363 C11.9790945,15.6420785 12.216724,15.9542749 12.5580357,16.0160714 L12.6785714,16.0267857 L14.0178571,16.0267857 L14.0178571,17.3660714 C14.0172186,17.7129318 14.2815513,18.0028674 14.6269935,18.0342079 C14.9724357,18.0655485 15.2846321,17.8279189 15.3464286,17.4866071 L15.3571429,17.3660714 L15.3571429,16.0267857 L16.6964286,16.0267857 C17.0432889,16.0274242 17.3332245,15.7630915 17.364565,15.4176494 C17.3959055,15.0722072 17.158276,14.7600108 16.8169643,14.6982143 L16.6964286,14.6875 L15.3571429,14.6875 L15.3571429,13.3482143 C15.3571429,12.9783807 15.0573335,12.6785714 14.6875,12.6785714 Z" id="路径" fill="#FFFFFF" fill-rule="nonzero"></path>
                </g>
            </g>
        </g>
    </g>
</svg>