<?xml version="1.0" encoding="UTF-8"?>
<svg width="20px" height="20px" viewBox="0 0 20 20" version="1.1" xmlns="http://www.w3.org/2000/svg" xmlns:xlink="http://www.w3.org/1999/xlink">
    <title>doc</title>
    <g id="DAPP整合" stroke="none" stroke-width="1" fill="none" fill-rule="evenodd">
        <g id="点击dapp侧边栏备份" transform="translate(-16.000000, -704.000000)">
            <g id="批量转账备份-7" transform="translate(0.000000, 692.000000)">
                <g id="doc" transform="translate(16.000000, 12.000000)">
                    <rect id="矩形" x="0" y="0" width="20" height="20"></rect>
                    <path d="M6.37353563,2 C7.11614143,2 7.82833264,2.29499936 8.35343457,2.82010123 L9.40000015,3.8666667 L16.8666669,3.8666667 C18.4130646,3.8666667 19.666667,5.12026951 19.666667,6.66666675 L19.666667,16 C19.666667,17.5463979 18.4130646,18.8000003 16.8666669,18.8000003 L3.7999996,18.8000003 C2.25360237,18.8000003 1,17.5463979 1,16 L1,4.8000005 C1,3.25360315 2.25360281,2 3.80000005,2 L6.37353563,2 Z M10.3333335,14.0400002 L5.85333342,14.0400002 C5.38941422,14.0400002 5.01333341,14.416081 5.01333341,14.8800002 C5.01333341,15.3439194 5.38941422,15.7200002 5.85333342,15.7200002 L5.85333342,15.7200002 L10.3333335,15.7200002 C10.7972528,15.7200002 11.1733335,15.3439194 11.1733335,14.8800002 C11.1733335,14.416081 10.7972528,14.0400002 10.3333335,14.0400002 L10.3333335,14.0400002 Z M14.8133336,9.56000014 L5.85333342,9.56000014 C5.38941422,9.56000014 5.01333341,9.93608095 5.01333341,10.4000002 C5.01333341,10.8639194 5.38941422,11.2400002 5.85333342,11.2400002 L5.85333342,11.2400002 L14.8133336,11.2400002 C15.2772524,11.2400002 15.6533336,10.8639194 15.6533336,10.4000002 C15.6533336,9.93608095 15.2772524,9.56000014 14.8133336,9.56000014 L14.8133336,9.56000014 Z" id="Combined-Shape" fill="#D9D9D9" fill-rule="nonzero"></path>
                </g>
            </g>
        </g>
    </g>
</svg>