<?xml version="1.0" encoding="UTF-8"?>
<svg width="150px" height="120px" viewBox="0 0 150 120" version="1.1" xmlns="http://www.w3.org/2000/svg" xmlns:xlink="http://www.w3.org/1999/xlink">
    <title>暂无领取记录</title>
    <g id="红包" stroke="none" stroke-width="1" fill="none" fill-rule="evenodd">
        <g id="04领取记录-当前无人领取" transform="translate(-113.000000, -362.000000)">
            <g id="编组-3" transform="translate(-0.001186, 77.000000)">
                <g id="编组-2" transform="translate(0.001186, 226.000000)">
                    <g id="暂无领取记录" transform="translate(113.000000, 59.000000)">
                        <path d="M124.2,39 C126.519596,39 128.4,40.8804041 128.4,43.2 C128.4,45.5195959 126.519596,47.4 124.2,47.4 L100.2,47.4 C102.519596,47.4 104.4,49.2804041 104.4,51.6 C104.4,53.9195959 102.519596,55.8 100.2,55.8 L113.4,55.8 C115.719596,55.8 117.6,57.6804041 117.6,60 C117.6,62.3195959 115.719596,64.2 113.4,64.2 L107.295652,64.2 C104.370944,64.2 102,66.0804041 102,68.4 C102,69.9463973 103.2,71.3463973 105.6,72.6 C107.919596,72.6 109.8,74.4804041 109.8,76.8 C109.8,79.1195959 107.919596,81 105.6,81 L55.8,81 C53.4804041,81 51.6,79.1195959 51.6,76.8 C51.6,74.4804041 53.4804041,72.6 55.8,72.6 L32.4,72.6 C30.0804041,72.6 28.2,70.7195959 28.2,68.4 C28.2,66.0804041 30.0804041,64.2 32.4,64.2 L56.4,64.2 C58.7195959,64.2 60.6,62.3195959 60.6,60 C60.6,57.6804041 58.7195959,55.8 56.4,55.8 L41.4,55.8 C39.0804041,55.8 37.2,53.9195959 37.2,51.6 C37.2,49.2804041 39.0804041,47.4 41.4,47.4 L65.4,47.4 C63.0804041,47.4 61.2,45.5195959 61.2,43.2 C61.2,40.8804041 63.0804041,39 65.4,39 L124.2,39 Z M124.2,55.8 C126.519596,55.8 128.4,57.6804041 128.4,60 C128.4,62.3195959 126.519596,64.2 124.2,64.2 C121.880404,64.2 120,62.3195959 120,60 C120,57.6804041 121.880404,55.8 124.2,55.8 Z" id="Background" fill="#F3F7FF"></path>
                        <g id="编组-2" transform="translate(50.000000, 49.000000)">
                            <path d="M17.4711307,18.7839767 C17.4242475,19.1159133 17.4,19.455125 17.4,19.8 C17.4,23.7764502 20.6235498,27 24.6,27 C28.5764502,27 31.8,23.7764502 31.8,19.8 C31.8,19.455125 31.7757525,19.1159133 31.7288693,18.7839767 L49.2,18.7839767 L49.2,34.8 C49.2,35.7941125 48.3941125,36.6 47.4,36.6 L1.8,36.6 C0.80588745,36.6 0,35.7941125 0,34.8 L0,18.7839767 L17.4711307,18.7839767 Z" id="Path" fill="#FFFFFF"></path>
                            <path d="M32.4,18.6 C32.4,22.907821 28.907821,26.4 24.6,26.4 C20.292179,26.4 16.8,22.907821 16.8,18.6 C16.8,18.4604391 16.8036653,18.3217344 16.8109049,18.1839767 L1.27329258e-11,18.1839767 L5.73626385,1.22331195 C5.98355803,0.492126337 6.6695106,5.02495823e-11 7.44138288,5.02495823e-11 L41.7586171,5.02495823e-11 C42.5304894,5.02495823e-11 43.216442,0.492126337 43.4637362,1.22331195 L49.2,18.1839767 L32.3890951,18.1839767 C32.3963347,18.3217344 32.4,18.4604391 32.4,18.6 Z" id="Path" fill="#FFFFFF"></path>
                            <path d="M31.2585366,19.1727273 C31.2585366,22.5014981 28.2774082,25.8 24.6,25.8 C20.9225918,25.8 17.9414634,22.5014981 17.9414634,19.1727273 C17.9414634,19.0648848 17.9445923,18.3577038 17.9507724,18.2512547 L5.4,18.2512547 L10.2968106,6.34528651 C10.5079154,5.78027944 11.0934847,5.4 11.7524,5.4 L37.4476,5.4 C38.1065153,5.4 38.6920846,5.78027944 38.9031894,6.34528651 L43.8,18.2512547 L31.2492276,18.2512547 C31.2554077,18.3577038 31.2585366,19.0648848 31.2585366,19.1727273 Z" id="Path" fill="#E8F0FE"></path>
                            <path d="M40.8976952,1 C41.3265131,1 41.7314645,1.13670176 42.0635578,1.37495708 C42.395651,1.6132124 42.6548862,1.95302127 42.7922719,2.3592355 L42.7922719,2.3592355 L48.2,18.348504 L48.2,33 C48.2,33.5522847 47.9761424,34.0522847 47.6142136,34.4142136 C47.2522847,34.7761424 46.7522847,35 46.2,35 L46.2,35 L3,35 C2.44771525,35 1.94771525,34.7761424 1.58578644,34.4142136 C1.22385763,34.0522847 1,33.5522847 1,33 L1,33 L1,18.348504 L6.4077281,2.3592355 C6.54511375,1.95302127 6.80434896,1.6132124 7.13644224,1.37495708 C7.46853551,1.13670176 7.87348686,1 8.30230479,1 L8.30230479,1 Z" id="Rectangle" stroke="#75A4FE" stroke-width="2"></path>
                            <path d="M3.94423828,18 L5.4,18 L3.94423828,18 Z M8.4,18 C10.7619418,18 13.3109241,18 16.0469467,18 C17.1727147,18 17.1727147,18.7911453 17.1727147,19.2 C17.1727147,23.1764502 20.470429,26.4 24.5383657,26.4 C28.6063024,26.4 31.9040167,23.1764502 31.9040167,19.2 C31.9040167,18.7911453 31.9040167,18 33.0297847,18 L48,18" id="Shape" stroke="#75A4FE" stroke-width="2" stroke-linecap="round" stroke-linejoin="round"></path>
                        </g>
                        <path d="M74.6597656,33 L74.6597656,43.0535156 M59,35.5816406 L65.6597656,43.0535156 M90.2597656,35.5816406 L83.6,43.0535156" id="lines" stroke="#A4C3FE" stroke-width="2" stroke-linecap="round" stroke-linejoin="round"></path>
                        <rect id="矩形" x="0" y="0" width="150" height="120"></rect>
                    </g>
                </g>
            </g>
        </g>
    </g>
</svg>