<?xml version="1.0" encoding="UTF-8"?>
<svg width="20px" height="20px" viewBox="0 0 20 20" version="1.1" xmlns="http://www.w3.org/2000/svg" xmlns:xlink="http://www.w3.org/1999/xlink">
    <title>帮助</title>
    <g id="红包" stroke="none" stroke-width="1" fill="none" fill-rule="evenodd">
        <g id="01创建红包-未连接钱包" transform="translate(-341.000000, -102.000000)" fill="#C1C1C1" fill-rule="nonzero">
            <g id="帮助" transform="translate(341.000000, 102.000000)">
                <path d="M10,20 C4.4771525,20 0,15.5228475 0,10 C0,4.4771525 4.4771525,0 10,0 C15.5228475,0 20,4.4771525 20,10 C20,15.5228475 15.5228475,20 10,20 Z M10,18.668 C13.0967782,18.668 15.9583192,17.0158886 17.5067083,14.334 C19.0550974,11.6521115 19.0550974,8.34788852 17.5067083,5.66599996 C15.9583192,2.98411141 13.0967782,1.332 10,1.332 C5.25509074,1.39085237 1.43950323,5.2540591 1.43950323,9.99933333 C1.43950323,14.7446076 5.25509074,18.6078143 10,18.6666667 L10,18.668 Z M10.2586667,5.112 C11.1693333,5.112 11.9093333,5.352 12.4766667,5.866 C13.046,6.36333334 13.3306667,7.046 13.3306667,7.9 C13.3306667,8.59533334 13.146,9.17866666 12.7906667,9.63333334 C12.6633333,9.79066668 12.2633333,10.16 11.5953333,10.7433333 C11.3493333,10.9473333 11.1466667,11.198 10.9986667,11.4813333 C10.8429501,11.7698436 10.7639806,12.0935267 10.7693333,12.4213333 L10.7693333,12.6633333 L9.246,12.6633333 L9.246,12.4213333 C9.246,11.8953333 9.33066666,11.44 9.52933334,11.0706667 C9.714,10.674 10.256,10.0893333 11.1366667,9.30733334 L11.3786667,9.03866666 C11.6353333,8.70933332 11.7753333,8.37066666 11.7753333,8 C11.7753333,7.50133334 11.632,7.11866666 11.362,6.83533334 C11.0786667,6.55066668 10.666,6.40866668 10.1526667,6.40866666 C9.51266666,6.40866666 9.04333332,6.608 8.76,7.02 C8.50333334,7.36133334 8.37533334,7.84666666 8.37533334,8.47066666 L6.88333334,8.47066666 C6.88333334,7.43266666 7.18133334,6.62333332 7.77666666,6.024 C8.38,5.41066666 9.206,5.112 10.2566667,5.112 L10.2586667,5.112 L10.2586667,5.112 Z M10.0046667,13.4306667 C10.3033333,13.4306667 10.558,13.5153333 10.758,13.714 C10.958,13.8986667 11.058,14.14 11.058,14.44 C11.0607026,14.7187892 10.9477401,14.9862305 10.746,15.1786667 C10.546,15.364 10.2813333,15.4653333 10.008,15.4613333 C9.73350212,15.4661773 9.4686269,15.360234 9.27318467,15.1674261 C9.07774245,14.9746182 8.96821467,14.711205 8.96932485,14.4366667 C8.96932485,14.1386667 9.06933334,13.8986667 9.26733334,13.712 C9.46414916,13.521105 9.73071348,13.419396 10.0046667,13.4306667 Z" id="形状"></path>
            </g>
        </g>
    </g>
</svg>