<?xml version="1.0" encoding="UTF-8"?>
<svg width="14px" height="14px" viewBox="0 0 14 14" version="1.1" xmlns="http://www.w3.org/2000/svg" xmlns:xlink="http://www.w3.org/1999/xlink">
    <title>提示</title>
    <g id="批量转账" stroke="none" stroke-width="1" fill="none" fill-rule="evenodd">
        <g id="01批量转账-复制不带数量的地址" transform="translate(-76.000000, -215.000000)" fill="#C1C1C1" fill-rule="nonzero">
            <g id="空投币种备份" transform="translate(16.000000, 212.000000)">
                <g id="提示" transform="translate(60.000000, 3.000000)">
                    <path d="M7,0 C3.13399976,0 0,3.13386823 0,6.99970621 C0,10.8655442 3.13399977,13.9994124 7,13.9994124 C10.8660002,13.9994124 14,10.8655442 14,6.99970621 C14,3.13386823 10.8660002,0 7,0 Z M7,11.6303035 C6.50717324,11.6303035 6.10765244,11.2307995 6.10765244,10.7379934 C6.10765244,10.2451874 6.50717323,9.84568334 7,9.84568334 C7.49282677,9.84568334 7.89234756,10.2451874 7.89234756,10.7379934 C7.89234756,11.2307995 7.49282676,11.6303035 7,11.6303035 Z M7.89234756,7.84428299 C7.89234756,8.33708906 7.49282676,8.73659308 6.99999998,8.73659308 C6.50717321,8.73659308 6.10765243,8.33708906 6.10765243,7.84428299 L6.10765243,4.03597512 C6.10765243,3.54318508 6.50717323,3.14368106 7,3.14368106 C7.49282677,3.14368106 7.89234756,3.54318508 7.89234756,4.03599115 L7.89234756,7.84428299 Z" id="形状"></path>
                </g>
            </g>
        </g>
    </g>
</svg>