<?xml version="1.0" encoding="UTF-8"?>
<svg width="20px" height="20px" viewBox="0 0 20 20" version="1.1" xmlns="http://www.w3.org/2000/svg" xmlns:xlink="http://www.w3.org/1999/xlink">
    <title>语言</title>
    <g id="红包" stroke="none" stroke-width="1" fill="none" fill-rule="evenodd">
        <g id="01创建红包-未连接钱包" transform="translate(-307.000000, -102.000000)" fill="#C1C1C1" fill-rule="nonzero">
            <g id="语言" transform="translate(307.000000, 102.000000)">
                <path d="M10,20 C4.48604651,20 0,15.514186 0,10 C0,4.48604651 4.48604651,0 10,0 C15.514186,0 20,4.48604651 20,10 C20,15.514186 15.514186,20 10,20 Z M10,1.39534884 C5.25534884,1.39534884 1.39534884,5.25534884 1.39534884,10 C1.39534884,14.7446512 5.25534884,18.6046512 10,18.6046512 C14.7446512,18.6046512 18.6046512,14.7446512 18.6046512,10 C18.6046512,5.25534884 14.7446512,1.39534884 10,1.39534884 Z" id="形状"></path>
                <path d="M10,20 C7.26162791,20 5.11627907,15.6072093 5.11627907,10 C5.11627907,4.39255814 7.26162791,0 10,0 C12.7383721,0 14.8837209,4.39255814 14.8837209,10 C14.8837209,15.6072093 12.7383721,20 10,20 Z M10,1.39534884 C8.35,1.39534884 6.51162791,4.92906977 6.51162791,10 C6.51162791,15.0709302 8.35,18.6046512 10,18.6046512 C11.6502326,18.6046512 13.4883721,15.0709302 13.4883721,10 C13.4883721,4.92906977 11.6502326,1.39534884 10,1.39534884 Z" id="形状"></path>
                <path d="M19.3023256,10.6976744 L0.697674419,10.6976744 C0.312325581,10.6976744 0,10.3853488 0,10 C0,9.61465116 0.312325581,9.30232558 0.697674419,9.30232558 L19.3023256,9.30232558 C19.6874419,9.30232558 20,9.61465116 20,10 C20,10.3853488 19.6874419,10.6976744 19.3023256,10.6976744 Z" id="路径"></path>
                <path d="M10,19.9218605 C9.61465116,19.9218605 9.30232558,19.6093023 9.30232558,19.224186 L9.30232558,0.697674419 C9.30232558,0.312325581 9.61465116,0 10,0 C10.3853488,0 10.6976744,0.312325581 10.6976744,0.697674419 L10.6976744,19.224186 C10.6976744,19.6093023 10.3853488,19.9218605 10,19.9218605 Z" id="路径"></path>
                <path d="M10,20 C7.57465116,20 5.23069767,19.1125581 3.40023256,17.5004651 C3.25,17.367907 3.16348837,17.1769767 3.16348837,16.9767442 C3.16348837,16.7765116 3.24976744,16.5855814 3.40023256,16.4530233 C5.23069767,14.8409302 7.57465116,13.9534884 10,13.9534884 C12.4255814,13.9534884 14.7693023,14.8409302 16.5997674,16.4530233 C16.75,16.5855814 16.8365116,16.7765116 16.8365116,16.9767442 C16.8365116,17.1769767 16.7502326,17.367907 16.5997674,17.5004651 C14.7693023,19.1125581 12.4255814,20 10,20 Z M4.97813953,16.9767442 C6.43930233,18.0313953 8.19348837,18.6046512 10,18.6046512 C11.8065116,18.6046512 13.5606977,18.0313953 15.0218605,16.9767442 C13.5606977,15.922093 11.8065116,15.3488372 10,15.3488372 C8.19348837,15.3488372 6.43930233,15.922093 4.97813953,16.9767442 Z M10,6.04651163 C7.57418605,6.04651163 5.23046512,5.15883721 3.40023256,3.54674419 C3.24976744,3.4144186 3.16348837,3.22348837 3.16348837,3.02325581 C3.16348837,2.82302326 3.24953488,2.63209302 3.40023256,2.49976744 C5.23046512,0.887674419 7.57418605,0 10,0 C12.4255814,0 14.7697674,0.887674419 16.5997674,2.49976744 C16.75,2.63209302 16.8365116,2.82302326 16.8365116,3.02325581 C16.8365116,3.22348837 16.7502326,3.4144186 16.5997674,3.54674419 C14.7697674,5.15883721 12.4255814,6.04651163 10,6.04651163 Z M4.97813953,3.02325581 C6.43906977,4.07813953 8.19325581,4.65116279 10,4.65116279 C11.8065116,4.65116279 13.5609302,4.07813953 15.0218605,3.02325581 C13.5611628,1.96837209 11.8065116,1.39534884 10,1.39534884 C8.19325581,1.39534884 6.43906977,1.96837209 4.97813953,3.02325581 Z" id="形状"></path>
            </g>
        </g>
    </g>
</svg>