<?xml version="1.0" encoding="UTF-8"?>
<svg width="32px" height="32px" viewBox="0 0 32 32" version="1.1" xmlns="http://www.w3.org/2000/svg" xmlns:xlink="http://www.w3.org/1999/xlink">
    <title>流动性</title>
    <g id="DAPP整合" stroke="none" stroke-width="1" fill="none" fill-rule="evenodd">
        <g id="未链接钱包" transform="translate(-172.000000, -175.000000)">
            <g id="流动性" transform="translate(134.000000, 156.000000)">
                <g transform="translate(38.000000, 19.000000)">
                    <rect id="矩形" x="0" y="0" width="32" height="32"></rect>
                    <path d="M5.84801901,17.0467633 C6.31608969,14.2283223 7.91326082,11.722637 10.2706213,10.108465 C9.99657906,9.58551805 9.78692469,9.03128612 9.64624377,8.45789132 C6.57993066,10.4130419 4.54246549,13.6310943 4.0865988,17.2390128 C4.61630057,17.1110702 5.15933087,17.0465345 5.704265,17.0467633 L5.84801901,17.0467633 L5.84801901,17.0467633 Z M26.5979649,17.0467633 C27.2067547,17.0623511 27.7999567,17.1584759 28.3767049,17.3186837 C27.9553001,13.8237114 26.0527834,10.6781877 23.1530634,8.68218229 C22.9942474,9.24909421 22.7628447,9.79310892 22.4646027,10.3007144 C24.6612123,11.931843 26.1422202,14.3489919 26.5979649,17.0467633 Z M20.8460706,28.2301364 C19.4043374,28.935556 17.8206888,29.3028132 16.2156311,29.3039619 C14.4524789,29.3039619 12.8027712,28.8709677 11.3600346,28.1019701 C11.0095694,28.5834871 10.6005696,29.0195402 10.1424551,29.4000866 C11.9910421,30.4600315 14.0847259,31.0180089 16.2156311,31.0186188 C18.3459624,31.0186188 20.3489933,30.4730461 22.0956917,29.5117991 C21.6242266,29.1418077 21.2040096,28.7108158 20.8460706,28.2301364 Z" id="形状" fill="#ABC6F6" fill-rule="nonzero"></path>
                    <path d="M10.9131847,6.59688244 C10.9131847,9.68795526 13.4189943,12.1937649 16.5100671,12.1937649 C19.6011399,12.1937649 22.1069495,9.68795526 22.1069495,6.59688244 C22.1069495,3.50580962 19.6011399,1 16.5100671,1 C13.4189943,1 10.9131847,3.50580962 10.9131847,6.59688244 L10.9131847,6.59688244 Z" id="路径" fill="#377FFC" fill-rule="nonzero"></path>
                    <path d="M0,24.0612687 C0,26.0608422 1.06675971,27.9085244 2.79844118,28.9083112 C4.53012266,29.9080979 6.66364222,29.9080979 8.39532369,28.9083112 C10.1270052,27.9085244 11.1937649,26.0608422 11.1937649,24.0612687 C11.1937649,20.9701959 8.68795526,18.4643862 5.59688244,18.4643862 C2.50580962,18.4643862 0,20.9701959 0,24.0612687 Z" id="路径" fill="#377FFC" fill-rule="nonzero"></path>
                    <path d="M20.8062351,24.0612687 C20.8062351,26.0608422 21.8729948,27.9085244 23.6046763,28.9083112 C25.3363578,29.908098 27.4698774,29.908098 29.2015588,28.9083112 C30.9332403,27.9085244 32,26.0608422 32,24.0612687 C32,20.9701959 29.4941904,18.4643862 26.4031176,18.4643862 C23.3120447,18.4643862 20.8062351,20.9701959 20.8062351,24.0612687 L20.8062351,24.0612687 Z" id="路径" fill="#377FFC" fill-rule="nonzero"></path>
                </g>
            </g>
        </g>
    </g>
</svg>