<?xml version="1.0" encoding="UTF-8"?>
<svg width="20px" height="20px" viewBox="0 0 20 20" version="1.1" xmlns="http://www.w3.org/2000/svg" xmlns:xlink="http://www.w3.org/1999/xlink">
    <title>流动性灰</title>
    <g id="DAPP整合" stroke="none" stroke-width="1" fill="none" fill-rule="evenodd">
        <g id="点击dapp侧边栏" transform="translate(-16.000000, -192.000000)" fill-rule="nonzero">
            <g id="流动性" transform="translate(0.000000, 180.000000)">
                <g id="流动性灰" transform="translate(16.000000, 12.000000)">
                    <path d="M3.65501188,10.6542271 C3.94755606,8.89270146 4.94578801,7.32664814 6.41913834,6.31779064 C6.24786191,5.99094878 6.11682793,5.64455382 6.02890236,5.28618207 C4.11245667,6.50815118 2.83904093,8.51943396 2.55412425,10.774383 C2.88518785,10.6944189 3.2245818,10.6540841 3.56516562,10.6542271 L3.65501188,10.6542271 L3.65501188,10.6542271 Z M16.6237281,10.6542271 C17.0042217,10.6639695 17.3749729,10.7240474 17.7354406,10.8241773 C17.4720625,8.63981961 16.2829896,6.67386732 14.4706646,5.42636393 C14.3714046,5.78068388 14.2267779,6.12069308 14.0403767,6.43794652 C15.4132577,7.45740189 16.3388876,8.96811992 16.6237281,10.6542271 Z M13.0287941,17.6438353 C12.1277109,18.0847225 11.1379305,18.3142583 10.1347694,18.3149762 C9.03279933,18.3149762 8.00173198,18.0443548 7.10002166,17.5637313 C6.88098087,17.8646794 6.62535598,18.1372126 6.33903441,18.3750541 C7.4944013,19.0375197 8.80295371,19.3862555 10.1347694,19.3866367 C11.4662265,19.3866367 12.7181208,19.0456538 13.8098073,18.4448745 C13.5151416,18.2136298 13.252506,17.9442599 13.0287941,17.6438353 Z" id="形状" fill="#D9D9D9"></path>
                    <path d="M6.82074042,4.12305152 C6.82074042,6.05497203 8.38687143,7.62110305 10.3187919,7.62110305 C12.2507125,7.62110305 13.8168435,6.05497203 13.8168435,4.12305152 C13.8168435,2.19113101 12.2507125,0.625 10.3187919,0.625 C8.38687143,0.625 6.82074042,2.19113101 6.82074042,4.12305152 L6.82074042,4.12305152 Z" id="路径" fill="#D9D9D9"></path>
                    <path d="M0,15.0382929 C0,16.2880264 0.666724822,17.4428277 1.74902574,18.0676945 C2.83132666,18.6925612 4.16477639,18.6925612 5.24707731,18.0676945 C6.32937823,17.4428277 6.99610305,16.2880264 6.99610305,15.0382929 C6.99610305,13.1063724 5.42997203,11.5402414 3.49805152,11.5402414 C1.56613101,11.5402414 0,13.1063724 0,15.0382929 Z" id="路径" fill="#D9D9D9"></path>
                    <path d="M13.003897,15.0382929 C13.003897,16.2880264 13.6706218,17.4428278 14.7529227,18.0676945 C15.8352236,18.6925612 17.1686733,18.6925612 18.2509743,18.0676945 C19.3332752,17.4428278 20,16.2880264 20,15.0382929 C20,13.1063724 18.433869,11.5402414 16.5019485,11.5402414 C14.570028,11.5402414 13.003897,13.1063724 13.003897,15.0382929 L13.003897,15.0382929 Z" id="路径" fill="#D9D9D9"></path>
                    <rect id="矩形" x="0" y="0" width="20" height="20"></rect>
                </g>
            </g>
        </g>
    </g>
</svg>