<?xml version="1.0" standalone="no"?><!DOCTYPE svg PUBLIC "-//W3C//DTD SVG 1.1//EN" "http://www.w3.org/Graphics/SVG/1.1/DTD/svg11.dtd"><svg t="1694169043176" class="icon" viewBox="0 0 1024 1024" version="1.1" xmlns="http://www.w3.org/2000/svg" p-id="747" xmlns:xlink="http://www.w3.org/1999/xlink" width="200" height="200"><path d="M884.338 558.535A139.662 139.662 0 0 1 1024 698.197v186.14A139.662 139.662 0 0 1 884.338 1024H139.662A139.662 139.662 0 0 1 0 884.338v-186.14a139.662 139.662 0 0 1 139.662-139.663h744.676z m0 93.127H139.662a46.535 46.535 0 0 0-46.592 46.535v186.14c0 25.715 20.878 46.593 46.592 46.593h744.676a46.535 46.535 0 0 0 46.592-46.592v-186.14a46.535 46.535 0 0 0-46.592-46.536z m0-651.662A139.662 139.662 0 0 1 1024 139.662v186.14a139.662 139.662 0 0 1-139.662 139.663H139.662A139.662 139.662 0 0 1 0 325.803v-186.14A139.662 139.662 0 0 1 139.662 0h744.676z m0 93.07H139.662a46.535 46.535 0 0 0-46.592 46.592v186.14c0 25.714 20.878 46.536 46.592 46.536h744.676a46.535 46.535 0 0 0 46.592-46.535v-186.14a46.535 46.535 0 0 0-46.592-46.593z" p-id="748" fill="#cccccc"></path></svg>