<?xml version="1.0" encoding="UTF-8"?>
<svg width="20px" height="20px" viewBox="0 0 20 20" version="1.1" xmlns="http://www.w3.org/2000/svg" xmlns:xlink="http://www.w3.org/1999/xlink">
    <title>Listtoken</title>
    <g id="DAPP整合" stroke="none" stroke-width="1" fill="none" fill-rule="evenodd">
        <g id="点击dapp侧边栏备份" transform="translate(-16.000000, -388.000000)" fill-rule="nonzero">
            <g id="批量转账备份-4" transform="translate(0.000000, 376.000000)">
                <g id="Listtoken" transform="translate(16.000000, 12.000000)">
                    <rect id="矩形" x="0" y="0" width="20" height="20"></rect>
                    <g id="编组" transform="translate(1.000000, 0.000000)" fill="#D9D9D9">
                        <path d="M18,18.2717978 L18,20 L12.8325359,20 L12.8325359,18.2717978 L18,18.2717978 Z M11.6842105,18.2717978 L11.6842105,20 L9.96172251,20 L9.96172251,18.2717978 L11.6842105,18.2717978 Z M1.39592657e-08,5.40417984 L8.08421055,8.98674311 L8.04057417,19.1393553 C8.01934446,19.1307518 7.99828766,19.121725 7.97741629,19.1122801 L1.02315792,16.0141895 C0.400918411,15.7368345 -8.6386984e-05,15.1177532 1.39592657e-08,14.4346127 L1.39592657e-08,5.40417984 Z M18,15.3914607 L18,17.1196629 L12.8325359,17.1196629 L12.8325359,15.3914607 L18,15.3914607 Z M11.6842105,15.3914607 L11.6842105,17.1196629 L9.96172251,17.1196629 L9.96172251,15.3914607 L11.6842105,15.3914607 Z M18,12.5111236 L18,14.2393258 L12.8325359,14.2393258 L12.8325359,12.5111236 L18,12.5111236 Z M11.6842105,12.5111236 L11.6842105,14.2393258 L9.96172251,14.2393258 L9.96172251,12.5111236 L11.6842105,12.5111236 Z M17.3523445,5.49980703 L17.3523445,11.3584127 L9.79636366,11.3584127 L9.80612442,9.03340457 L17.3523445,5.49980703 L17.3523445,5.49980703 Z M9.37550241,0.148716812 L16.3286124,3.24680738 C16.5933014,3.3649012 16.8183732,3.54405816 16.9888995,3.76411592 L8.99540671,7.52065153 L0.415693818,3.70017243 C0.582111688,3.50566355 0.789625122,3.35079129 1.02315792,3.24680738 L7.97741629,0.148716812 C8.4224919,-0.0495722706 8.93042681,-0.0495722706 9.37550241,0.148716812 Z" id="形状"></path>
                    </g>
                </g>
            </g>
        </g>
    </g>
</svg>