<?xml version="1.0" encoding="UTF-8"?>
<svg width="20px" height="23px" viewBox="0 0 20 23" version="1.1" xmlns="http://www.w3.org/2000/svg" xmlns:xlink="http://www.w3.org/1999/xlink">
    <title>锁定灰</title>
    <g id="DAPP整合" stroke="none" stroke-width="1" fill="none" fill-rule="evenodd">
        <g id="点击dapp侧边栏" transform="translate(-16.000000, -366.000000)" fill-rule="nonzero">
            <g id="批量转账备份-3" transform="translate(0.000000, 356.000000)">
                <g id="锁定灰" transform="translate(16.000000, 10.000000)">
                    <rect id="矩形" x="0" y="3" width="20" height="20"></rect>
                    <g id="编组-3">
                        <path d="M3.33307692,8.55666668 L3.33307692,6.59307693 C3.33307692,2.95230769 6.3176923,0 10,0 C13.6815385,0 16.6669231,2.95230769 16.6669231,6.59307693 L16.6669231,8.55666668 L16.7030769,8.55666668 C18.5239173,8.55666669 20,10.0327494 20,11.8535897 L20,18.4466667 C20,20.267507 18.5239173,21.7435898 16.7030769,21.7435898 L3.29692306,21.7435898 C1.47608273,21.7435898 0,20.267507 0,18.4466667 L0,11.8535897 C0,10.0327494 1.47608274,8.55666669 3.29692306,8.55666668 L3.33307692,8.55666668 Z M15,8.55666668 L15,6.59307693 C15,3.8623077 12.7615385,1.64846153 9.99999999,1.64846153 C7.23846153,1.64846153 4.99999999,3.86153846 4.99999999,6.5923077 L4.99999999,8.55589744 L15,8.55666668 Z" id="形状" fill="#D9D9D9"></path>
                        <g id="编组-2" transform="translate(2.666667, 13.333333)" fill="#FFFFFF">
                            <path d="M5.20238095,0 C6.26092672,0 7.11904762,0.858120896 7.11904762,1.91666667 C7.11904762,2.97521244 6.26092672,3.83333333 5.20238095,3.83333333 C4.14383518,3.83333333 3.28571429,2.97521244 3.28571429,1.91666667 C3.28571429,0.858120896 4.14383518,0 5.20238095,0 Z M5.20238095,0.958333333 C4.67310807,0.958333333 4.24404762,1.38739378 4.24404762,1.91666667 C4.24404762,2.44593955 4.67310807,2.875 5.20238095,2.875 C5.73165384,2.875 6.16071429,2.44593955 6.16071429,1.91666667 C6.16071429,1.38739378 5.73165384,0.958333333 5.20238095,0.958333333 Z" id="椭圆形-2"></path>
                            <path d="M9.58333333,0 C10.4765153,0 11.2270012,0.610954842 11.4396825,1.43775622 L10.4136864,1.43789373 C10.2480421,1.15123012 9.93821446,0.958333333 9.58333333,0.958333333 C9.05406045,0.958333333 8.625,1.38739378 8.625,1.91666667 C8.625,2.44593955 9.05406045,2.875 9.58333333,2.875 C9.97513274,2.875 10.3120173,2.63988153 10.4605895,2.30304207 L10.9258921,2.30271277 L11.036483,2.19047619 L11.2215181,2.30271277 L11.3478835,2.19047619 L11.4697852,2.25750413 C11.3089817,3.15344791 10.5255554,3.83333333 9.58333333,3.83333333 C8.52478756,3.83333333 7.66666667,2.97521244 7.66666667,1.91666667 C7.66666667,0.858120896 8.52478756,0 9.58333333,0 Z" id="椭圆形-2备份"></path>
                            <circle id="椭圆形" cx="9.58333333" cy="1.91666667" r="1"></circle>
                            <path d="M1.0952381,0 L1.095,2.738 L2.73809524,2.73809524 L2.73809524,3.83333333 L0,3.83333333 L0,0 L1.0952381,0 Z" id="矩形-2"></path>
                            <path d="M12.047619,-3.89106736e-15 L13.1428571,-3.89106736e-15 L13.142619,1.46 L14.2380952,2.71951773e-14 L15.3333333,2.71951773e-14 L13.895619,1.916 L15.3333333,3.83333333 L14.2380952,3.83333333 L13.142619,2.373 L13.1428571,3.83333333 L12.047619,3.83333333 L12.047619,2.35551016 L12.454007,2.35551016 L12.7697134,1.97498598 L12.2289903,1.43867835 L12.047619,1.43867835 L12.047619,-3.89106736e-15 Z" id="矩形备份-6"></path>
                        </g>
                    </g>
                </g>
            </g>
        </g>
    </g>
</svg>