<?xml version="1.0" encoding="UTF-8"?>
<svg width="32px" height="32px" viewBox="0 0 32 32" version="1.1" xmlns="http://www.w3.org/2000/svg" xmlns:xlink="http://www.w3.org/1999/xlink">
    <title>锁定</title>
    <g id="DAPP整合" stroke="none" stroke-width="1" fill="none" fill-rule="evenodd">
        <g id="未链接钱包" transform="translate(-289.000000, -286.000000)">
            <g id="锁定" transform="translate(251.000000, 266.000000)">
                <g transform="translate(38.000000, 20.000000)">
                    <rect id="矩形" x="0" y="0" width="32" height="32"></rect>
                    <g id="编组-3" transform="translate(1.000000, 1.000000)" fill-rule="nonzero">
                        <path d="M4.99961538,12.0479483 L4.99961538,9.28317682 C4.99961538,4.15690498 9.47653845,0 15,0 C20.5223077,0 25.0003846,4.15690498 25.0003846,9.28317682 L25.0003846,12.0479483 L25.0546154,12.0479483 C27.7858759,12.0479483 30,14.1263006 30,16.6900782 L30,25.973255 C30,28.5370326 27.7858759,30.615385 25.0546154,30.615385 L4.9453846,30.615385 C2.2141241,30.615385 0,28.5370326 0,25.973255 L0,16.6900782 C0,14.1263006 2.21412411,12.0479483 4.9453846,12.0479483 L4.99961538,12.0479483 Z M22.5,12.0479483 L22.5,9.28317682 C22.5,5.43820218 19.1423077,2.32106497 15,2.32106497 C10.8576923,2.32106497 7.49999998,5.43711907 7.49999998,9.28209374 L7.49999998,12.0468652 L22.5,12.0479483 Z" id="形状" fill="#377FFC"></path>
                        <g id="编组-2" transform="translate(4.000000, 18.773585)" fill="#ABC6F6">
                            <path d="M7.80357143,0 C9.39139008,0 10.6785714,1.20825043 10.6785714,2.69870286 C10.6785714,4.1891553 9.39139008,5.39740572 7.80357143,5.39740572 C6.21575277,5.39740572 4.92857143,4.1891553 4.92857143,2.69870286 C4.92857143,1.20825043 6.21575277,0 7.80357143,0 Z M7.80357143,1.34935143 C7.0096621,1.34935143 6.36607143,1.95347664 6.36607143,2.69870286 C6.36607143,3.44392908 7.0096621,4.04805429 7.80357143,4.04805429 C8.59748076,4.04805429 9.24107143,3.44392908 9.24107143,2.69870286 C9.24107143,1.95347664 8.59748076,1.34935143 7.80357143,1.34935143 Z" id="椭圆形-2"></path>
                            <path d="M14.375,0 C15.7152056,0 16.8412287,0.860791599 17.1598326,2.02551574 L15.6207421,2.02492698 C15.3723283,1.62110873 14.9074735,1.34935143 14.375,1.34935143 C13.5810907,1.34935143 12.9375,1.95347664 12.9375,2.69870286 C12.9375,3.44392908 13.5810907,4.04805429 14.375,4.04805429 C14.9625096,4.04805429 15.4677,3.71721654 15.6906686,3.24318554 L16.3888382,3.24226307 L16.5547245,3.08423184 L16.8322772,3.24226307 L17.0218253,3.08423184 L17.2044423,3.17983818 C16.9627088,4.44073627 15.7878738,5.39740572 14.375,5.39740572 C12.7871813,5.39740572 11.5,4.1891553 11.5,2.69870286 C11.5,1.20825043 12.7871813,0 14.375,0 Z" id="椭圆形-2备份"></path>
                            <ellipse id="椭圆形" cx="14.375" cy="2.69870286" rx="1" ry="1"></ellipse>
                            <path d="M1.64285714,0 L1.642,3.855 L4.10714286,3.8552898 L4.10714286,5.39740572 L0,5.39740572 L0,0 L1.64285714,0 Z" id="矩形-2"></path>
                            <path d="M18.0714286,-5.47869633e-15 L19.7142857,-5.47869633e-15 L19.7134286,2.056 L21.3571429,3.82640908e-14 L23,3.82640908e-14 L20.8434286,2.699 L23,5.39740572 L21.3571429,5.39740572 L19.7134286,3.341 L19.7142857,5.39740572 L18.0714286,5.39740572 L18.0714286,3.31660278 L18.6810105,3.31660278 L19.1545701,2.78081755 L18.3434855,2.02568629 L18.0714286,2.02568629 L18.0714286,-5.47869633e-15 Z" id="矩形备份-6"></path>
                        </g>
                    </g>
                </g>
            </g>
        </g>
    </g>
</svg>