<?xml version="1.0" encoding="UTF-8"?>
<svg width="24px" height="24px" viewBox="0 0 24 24" version="1.1" xmlns="http://www.w3.org/2000/svg" xmlns:xlink="http://www.w3.org/1999/xlink">
    <title>菜单</title>
    <g id="DAPP整合" stroke="none" stroke-width="1" fill="none" fill-rule="evenodd">
        <g id="未链接钱包" transform="translate(-16.000000, -99.000000)">
            <g id="菜单" transform="translate(16.000000, 99.000000)">
                <rect id="矩形" x="0" y="0" width="24" height="24"></rect>
                <g id="Group" transform="translate(3.250000, 5.250000)" fill="#333333">
                    <path d="M0.75,0 L16.75,0 C17.1642151,0 17.5,0.335786432 17.5,0.75 C17.5,1.16421357 17.1642151,1.5 16.75,1.5 L0.75,1.5 C0.335786432,1.5 0,1.16421357 0,0.75 C0,0.335786432 0.335786432,0 0.75,0 Z" id="Vector-605-(Stroke)"></path>
                    <path d="M0.75,4 L10.75,4 C11.1642141,4 11.5,4.33578643 11.5,4.75 C11.5,5.16421357 11.1642141,5.5 10.75,5.5 L0.75,5.5 C0.335786432,5.5 0,5.16421357 0,4.75 C0,4.33578643 0.335786432,4 0.75,4 Z" id="Vector-606-(Stroke)"></path>
                    <path d="M0.75,8 L16.75,8 C17.1642151,8 17.5,8.33578643 17.5,8.75 C17.5,9.16421357 17.1642151,9.5 16.75,9.5 L0.75,9.5 C0.335786432,9.5 0,9.16421357 0,8.75 C0,8.33578643 0.335786432,8 0.75,8 Z" id="Vector-607-(Stroke)"></path>
                    <path d="M0.75,12 L10.75,12 C11.1642141,12 11.5,12.3357864 11.5,12.75 C11.5,13.1642136 11.1642141,13.5 10.75,13.5 L0.75,13.5 C0.335786432,13.5 0,13.1642136 0,12.75 C0,12.3357864 0.335786432,12 0.75,12 Z" id="Vector-608-(Stroke)"></path>
                </g>
            </g>
        </g>
    </g>
</svg>