<?xml version="1.0" encoding="UTF-8"?>
<svg width="32px" height="32px" viewBox="0 0 32 32" version="1.1" xmlns="http://www.w3.org/2000/svg" xmlns:xlink="http://www.w3.org/1999/xlink">
    <title>批量转账</title>
    <g id="DAPP整合" stroke="none" stroke-width="1" fill="none" fill-rule="evenodd">
        <g id="未链接钱包" transform="translate(-289.000000, -175.000000)">
            <g id="批量转账" transform="translate(251.000000, 156.000000)">
                <g transform="translate(38.000000, 19.000000)">
                    <rect id="矩形" x="0" y="0" width="32" height="32"></rect>
                    <path d="M27.7847429,23.7065311 L19.1746226,23.7065311 C18.4511469,23.7065311 17.8144358,23.0712654 17.8144358,22.3448086 C17.8144358,21.6153709 18.451192,20.9799245 19.1746226,20.9799245 L27.7847429,20.9799245 C28.5111997,20.9799245 29.1449298,21.6153257 29.1449298,22.3448086 C29.1449298,23.0712202 28.5111997,23.7065311 27.7847429,23.7065311 L27.7847429,23.7065311 Z" id="路径" fill="#ABC6F6" fill-rule="nonzero"></path>
                    <path d="M24.2002001,19.2535283 L20.12244,23.3447481 C19.7576759,23.6167855 19.3959832,23.7080668 19.1269268,23.7080668 L19.1269268,23.7065311 C18.7621628,23.7065311 18.4003798,23.6168306 18.2179526,23.3433028 C17.673923,22.7990926 17.673923,21.9785993 18.2179526,21.4343891 L22.2958934,17.3461503 C22.839923,16.7990043 23.6560802,16.7990043 24.2002001,17.3461503 C24.7442748,17.8887797 24.7442748,18.7078276 24.2002001,19.2535283 L24.2002001,19.2535283 Z" id="路径" fill="#ABC6F6" fill-rule="nonzero"></path>
                    <path d="M24.2151051,27.4315867 C23.943158,27.6154592 23.581375,27.7949054 23.2166109,27.7949054 C22.8579444,27.7949054 22.4930448,27.7067405 22.3137341,27.4315867 L18.2329478,23.3447933 C17.6888279,22.7991377 17.6888279,21.9815351 18.2329478,21.4344342 C18.777158,20.8918048 19.5931346,20.8918048 20.1343639,21.4344342 L24.2151502,25.5242087 C24.7591798,26.0712644 24.7591798,26.8889121 24.2151051,27.4315867 L24.2151051,27.4315867 Z" id="路径" fill="#ABC6F6" fill-rule="nonzero"></path>
                    <path d="M28.4185634,18.0741427 C28.3647702,18.090493 28.305015,18.0741427 28.2690173,18.0277116 C27.7907049,17.3969174 26.7054009,15.9933256 26.1524736,15.4357913 C25.4109312,14.6809249 24.4005132,14.2541473 23.3451094,14.2541473 C22.2876146,14.2541142 21.2746838,14.6800475 20.5349901,15.4357913 L16.4563266,19.5300824 C15.9122067,20.0742023 15.5490235,20.8021495 15.3688998,21.5286062 C15.2768506,21.8005984 15.2768506,22.0727262 15.2768506,22.3448086 C15.2768506,22.616846 15.2768506,22.8873929 15.3688998,23.1625016 C15.5490235,23.8889583 15.9122067,24.6154151 16.4563266,25.1609803 L20.4452444,29.2507547 C21.2614017,30.0684476 22.1673046,30.431676 23.2554541,30.431676 C24.3107676,30.4271593 25.3182949,30.0026401 26.0626376,29.2507547 C26.6815531,28.700718 27.7159545,27.3149218 28.1822978,26.6752298 C28.2152021,26.6286495 28.2751125,26.6097013 28.3288177,26.628889 C28.3826109,26.6453296 28.4185182,26.6961418 28.4185182,26.7544517 C28.4185182,28.8263258 26.7293843,30.522867 24.6605363,30.522867 L9.1579747,30.522867 C7.09143018,30.522867 5.39927014,28.8263258 5.39927014,26.7544517 L5.39927014,8.66281519 C5.39927014,6.58877307 7.09143018,4.89439988 9.1579747,4.89439988 L24.750282,4.89439988 C26.8160135,4.89439988 28.5081735,6.58872792 28.5081735,8.66281519 L28.5081735,17.9485349 C28.5081735,18.0038186 28.4722662,18.0560761 28.4185634,18.0741427 L28.4185634,18.0741427 Z" id="路径" fill="#3F80F7" fill-rule="nonzero"></path>
                    <path d="M7.61752866,3.27206714 C5.53377575,3.27206714 3.81176072,4.99932147 3.81176072,7.08975901 L3.81176072,26.3563097 C3.81176072,26.631328 3.81176072,26.9018749 3.90290655,27.2651484 C2.7242436,26.6313732 2,25.4475612 2,24.0857032 L2,5.63467755 C2,3.63529553 3.63077886,2 5.62487642,2 L21.3959073,2 C22.4810306,2 23.4796602,2.54556524 24.1133903,3.27206714 L7.61752866,3.27206714 Z" id="路径" fill="#3F80F7" fill-rule="nonzero"></path>
                </g>
            </g>
        </g>
    </g>
</svg>