<?xml version="1.0" encoding="UTF-8"?>
<svg width="20px" height="20px" viewBox="0 0 20 20" version="1.1" xmlns="http://www.w3.org/2000/svg" xmlns:xlink="http://www.w3.org/1999/xlink">
    <title>批量转账灰</title>
    <g id="DAPP整合" stroke="none" stroke-width="1" fill="none" fill-rule="evenodd">
        <g id="点击dapp侧边栏" transform="translate(-16.000000, -236.000000)" fill-rule="nonzero">
            <g id="批量转账" transform="translate(0.000000, 224.000000)">
                <g id="批量转账灰" transform="translate(16.000000, 12.000000)">
                    <rect id="矩形" x="0" y="0" width="20" height="20"></rect>
                    <g id="编组" transform="translate(1.000000, 0.000000)" fill="#D9D9D9">
                        <path d="M17.1898289,14.471021 L11.4497486,14.471021 C10.9674314,14.471021 10.5429574,14.0475105 10.5429574,13.563206 C10.5429574,13.0769142 10.9674615,12.6532832 11.4497486,12.6532832 L17.1898289,12.6532832 C17.6741334,12.6532832 18.0966202,13.0768841 18.0966202,13.563206 C18.0966202,14.0474804 17.6741334,14.471021 17.1898289,14.471021 L17.1898289,14.471021 Z" id="路径"></path>
                        <path d="M14.8001337,11.5023524 L12.0816269,14.2298323 C11.8384508,14.4111906 11.5973223,14.4720448 11.4179514,14.4720448 L11.4179514,14.471021 C11.1747754,14.471021 10.9335867,14.4112207 10.8119686,14.2288688 C10.4492822,13.8660619 10.4492822,13.3190665 10.8119686,12.9562596 L13.5305958,10.2307671 C13.8932822,9.86600303 14.4373871,9.86600303 14.8001337,10.2307671 C15.1628502,10.59252 15.1628502,11.138552 14.8001337,11.5023524 L14.8001337,11.5023524 Z" id="路径"></path>
                        <path d="M14.8100703,16.9543914 C14.6287723,17.0769731 14.3875836,17.1966039 14.1444075,17.1966039 C13.9052965,17.1966039 13.6620301,17.1378273 13.5424897,16.9543914 L10.8219654,14.2298624 C10.4592188,13.866092 10.4592188,13.3210237 10.8219654,12.9562897 C11.1847722,12.5945368 11.7287566,12.5945368 12.0895761,12.9562897 L14.8101004,15.682806 C15.1727868,16.0475099 15.1727868,16.5926084 14.8100703,16.9543914 L14.8100703,16.9543914 Z" id="路径"></path>
                        <path d="M17.6123759,10.7160953 C17.5765137,10.7269955 17.5366769,10.7160953 17.5126785,10.6851413 C17.1938036,10.2646118 16.4702676,9.32888392 16.1016493,8.95719434 C15.6072878,8.45395006 14.9336757,8.1694317 14.2300732,8.1694317 C13.5250766,8.1694096 12.8497894,8.45336517 12.3566603,8.95719434 L9.63755123,11.6867218 C9.27480462,12.0494684 9.03268248,12.5347665 8.91260004,13.0190711 C8.85123392,13.2003992 8.85123392,13.3818177 8.85123392,13.563206 C8.85123392,13.7445643 8.85123392,13.9249288 8.91260004,14.1083346 C9.0326825,14.5926391 9.27480464,15.0769436 9.63755123,15.4406538 L12.2968298,18.1671701 C12.8409347,18.7122987 13.44487,18.954451 14.170303,18.954451 C14.8738453,18.9514399 15.5455302,18.6684271 16.0417587,18.1671701 C16.454369,17.800479 17.1439699,16.8766148 17.4548655,16.4501535 C17.4768017,16.4191 17.516742,16.4064678 17.5525454,16.4192596 C17.5884075,16.43022 17.6123457,16.4640948 17.6123457,16.5029681 C17.6123457,17.8842175 16.4862565,19.015245 15.1070245,19.015245 L4.77198322,19.015245 C3.39428685,19.015245 2.26618013,17.8842175 2.26618013,16.5029681 L2.26618013,4.44187687 C2.26618013,3.0591821 3.39428685,1.92959996 4.77198322,1.92959996 L15.1668549,1.92959996 C16.5440093,1.92959996 17.672116,3.059152 17.672116,4.44187687 L17.672116,10.6323568 C17.672116,10.6692126 17.6481778,10.7040509 17.6123759,10.7160953 L17.6123759,10.7160953 Z" id="路径"></path>
                        <path d="M3.74501917,0.848044775 C2.35585054,0.848044775 1.2078405,1.99954768 1.2078405,3.39317273 L1.2078405,16.2375401 C1.2078405,16.4208856 1.2078405,16.6012502 1.26860439,16.8434326 C0.482829078,16.4209157 0,15.6317078 0,14.7238024 L0,2.42311841 C0,1.09019704 1.08718592,0 2.41658432,0 L12.9306051,0 C13.6540206,0 14.3197737,0.363710164 14.7422604,0.848044775 L3.74501917,0.848044775 Z" id="路径"></path>
                    </g>
                </g>
            </g>
        </g>
    </g>
</svg>