<?xml version="1.0" standalone="no"?><!DOCTYPE svg PUBLIC "-//W3C//DTD SVG 1.1//EN" "http://www.w3.org/Graphics/SVG/1.1/DTD/svg11.dtd"><svg t="1691376141708" class="icon" viewBox="0 0 1024 1024" version="1.1" xmlns="http://www.w3.org/2000/svg" p-id="57333" xmlns:xlink="http://www.w3.org/1999/xlink" width="200" height="200"><path d="M508.819876 0c31.801242 0 50.881988 12.720497 69.962733 25.440994 19.080745 12.720497 387.975155 216.248447 400.695652 222.608695 12.720497 6.360248 31.801242 12.720497 38.161491 44.52174 0 19.080745-6.360248 38.161491-19.080746 44.521739-12.720497 6.360248-445.217391 267.130435-457.937888 273.490683-12.720497 6.360248-19.080745 12.720497-31.801242 12.720497-6.360248 0-19.080745 0-25.440994-6.360249-6.360248-6.360248-445.217391-267.130435-451.57764-273.490683-25.440994-12.720497-31.801242-31.801242-31.801242-50.881987 0-19.080745 12.720497-31.801242 31.801242-44.52174C44.521739 241.689441 419.776398 31.801242 438.857143 19.080745c19.080745-6.360248 38.161491-19.080745 69.962733-19.080745zM63.602484 457.937888c6.360248 6.360248 292.571429 190.807453 337.093168 216.248447 76.322981 44.521739 89.043478 44.521739 101.763975 44.52174 12.720497 0 19.080745 0 108.124224-44.52174 44.521739-25.440994 286.21118-184.447205 324.372671-203.52795 19.080745-12.720497 31.801242-12.720497 50.881987 0 19.080745 0 31.801242 12.720497 31.801243 38.161491 0 25.440994-19.080745 38.161491-38.161491 44.521739-19.080745 12.720497-419.776398 248.049689-426.136646 254.409938-12.720497 12.720497-31.801242 25.440994-50.881988 25.440994-12.720497 0-25.440994-6.360248-44.521739-19.080746L31.801242 553.341615c-12.720497-6.360248-31.801242-19.080745-31.801242-44.521739 0-38.161491 25.440994-50.881988 38.161491-50.881988 12.720497-12.720497 19.080745-6.360248 25.440993 0zM44.521739 636.024845c12.720497 0 31.801242 0 38.161491 6.360248 6.360248 6.360248 362.534161 222.608696 381.614907 235.329193 12.720497 6.360248 44.521739 25.440994 44.521739 25.440994 6.360248 0 38.161491-19.080745 50.881987-31.801243 12.720497-6.360248 375.254658-216.248447 394.335404-222.608695 6.360248-6.360248 19.080745-12.720497 25.440994-6.360249 31.801242 6.360248 38.161491 25.440994 38.161491 50.881988s-19.080745 38.161491-38.161491 50.881987c-19.080745 12.720497-413.416149 248.049689-426.136646 260.770187-12.720497 6.360248-25.440994 19.080745-44.521739 19.080745-19.080745 0-25.440994-6.360248-44.521739-19.080745L25.440994 744.149068c-12.720497-12.720497-25.440994-25.440994-25.440994-50.881987 0-12.720497 6.360248-31.801242 19.080745-38.161491 6.360248-6.360248 12.720497-12.720497 25.440994-19.080745z m0 0" fill="#3F80F7" p-id="57334"></path></svg>