<?xml version="1.0" encoding="UTF-8"?>
<svg width="20px" height="20px" viewBox="0 0 20 20" version="1.1" xmlns="http://www.w3.org/2000/svg" xmlns:xlink="http://www.w3.org/1999/xlink">
    <title>链上红包灰</title>
    <g id="DAPP整合" stroke="none" stroke-width="1" fill="none" fill-rule="evenodd">
        <g id="点击dapp侧边栏" transform="translate(-16.000000, -280.000000)" fill-rule="nonzero">
            <g id="批量转账备份" transform="translate(0.000000, 268.000000)">
                <g id="链上红包灰" transform="translate(16.000000, 12.000000)">
                    <rect id="矩形" x="0" y="0" width="20" height="20"></rect>
                    <g id="编组-3" transform="translate(2.000000, 1.000000)" fill="#D9D9D9">
                        <path d="M14.399,5.35 L14.3995177,10.37394 C14.0195325,10.2609391 13.6170216,10.2002618 13.2003387,10.2002618 C10.8806833,10.2002618 9.00023096,12.0807141 9.00023096,14.4003695 C9.00023096,15.9287072 9.81653886,17.266386 11.036937,18.0011882 L1.80038369,18.0004619 C1.32301159,18.0004619 0.865191407,17.8108147 0.527638361,17.4732406 C0.190085316,17.1356664 0.000449997486,16.6778177 0.000449997486,16.2004157 L0.000449997486,5.35018729 C1.52440465,6.71687671 3.40648827,7.62058933 5.42590014,7.95530415 C5.57344638,8.81986765 6.3227248,9.4521402 7.19973479,9.4521402 C8.07674478,9.4521402 8.8260232,8.81986765 8.97356945,7.95530415 C10.8672827,7.64168548 12.6402749,6.82764514 14.1104303,5.60062237 L14.399,5.35 Z M12.5999859,0 C13.077358,0 13.5351781,0.189647181 13.8727312,0.527221328 C14.2102842,0.864795475 14.3999195,1.32264427 14.3999195,1.8000462 L14.4003695,4.09465507 C12.9348055,5.65052545 11.0042793,6.68919359 8.89842221,7.05483104 C8.64534999,6.33325731 7.96413331,5.8502563 7.19950979,5.8502563 C6.43488628,5.8502563 5.7536696,6.33325731 5.50059738,7.05483104 C3.39519112,6.68901099 1.46514945,5.65034871 0,4.09465507 L0.000449997486,1.8000462 C0.000449991891,1.32264427 0.190085316,0.864795475 0.527638361,0.527221328 C0.865191407,0.189647181 1.32301159,0 1.80038369,0 L12.5999859,0 Z" id="形状"></path>
                        <g id="编组" transform="translate(10.200262, 11.400293)">
                            <path d="M5.79117858,2.22926935 L4.71712839,3.30173188 C4.43849453,3.58036574 3.98601219,3.58036574 3.70737833,3.30173188 L3.40492961,2.99928316 L4.3130696,2.09114316 C4.42420561,1.97841949 4.42420561,1.79822039 4.3130696,1.68708437 C4.20193359,1.57594836 4.02014682,1.57594836 3.90901081,1.68708437 L3.00007699,2.59522437 L2.69762827,2.29277565 C2.4189944,2.01414178 2.4189944,1.56165944 2.69762827,1.28302558 L3.77009079,0.208975396 C4.05031231,-0.0696584655 4.50120699,-0.0696584655 4.77984086,0.208975396 L5.79117858,1.22031312 C6.06981244,1.49815315 6.06981244,1.94904783 5.79117858,2.22926935 Z M3.30331954,4.71633456 L2.23006318,5.79038475 C1.94984166,6.06901861 1.49894698,6.06901861 1.22031312,5.79038475 L0.208975396,4.77904703 C-0.0696584655,4.50041317 -0.0696584655,4.04872466 0.208975396,3.76929696 L1.28302558,2.69683444 C1.56165944,2.41820057 2.01414178,2.41820057 2.29277565,2.69683444 L2.59522437,2.99928316 L1.68708437,3.90742315 C1.57594836,4.02014682 1.57594836,4.20034593 1.68708437,4.31148194 C1.74265238,4.36704995 1.81568462,4.39562778 1.88871685,4.39562778 C1.96174909,4.39562778 2.03557516,4.36704995 2.09193699,4.31148194 L3.00007699,3.40254812 L3.30252571,3.70579067 C3.5819534,3.98521836 3.5819534,4.4377007 3.30331954,4.71633456 Z" id="形状"></path>
                        </g>
                    </g>
                </g>
            </g>
        </g>
    </g>
</svg>