<?xml version="1.0" encoding="UTF-8"?>
<svg width="32px" height="32px" viewBox="0 0 32 32" version="1.1" xmlns="http://www.w3.org/2000/svg" xmlns:xlink="http://www.w3.org/1999/xlink">
    <title>链上红包</title>
    <g id="DAPP整合" stroke="none" stroke-width="1" fill="none" fill-rule="evenodd">
        <g id="未链接钱包" transform="translate(-54.000000, -285.000000)">
            <g id="链上红包" transform="translate(16.000000, 266.000000)">
                <g transform="translate(38.000000, 19.000000)">
                    <rect id="矩形" x="0" y="0" width="32" height="32"></rect>
                    <path d="M4.00068748,10.1736888 C6.32889216,12.2616333 9.20422436,13.6422701 12.2893583,14.153627 C12.5147704,15.4744542 13.6594721,16.4404015 14.9993143,16.4404015 C16.3391565,16.4404015 17.4838583,15.4744542 17.7092704,14.153627 C20.6549714,13.6657881 23.4094748,12.3853825 25.6791014,10.453414 L25.999,10.174 L25.9994659,17.848898 C25.4187234,17.6761163 24.8035317,17.5833358 24.1666699,17.5833358 C20.6228422,17.5833358 17.7500022,20.4561758 17.7500022,24.0000035 C17.7500022,26.3348045 18.9970008,28.3783533 20.8613178,29.5009699 L6.75051604,29.5000044 C6.02121616,29.5000044 5.3217865,29.2102731 4.80609361,28.6945479 C4.29040072,28.1788228 4.00068748,27.4793494 4.00068748,26.750004 L4.00068748,10.1736888 Z M23.2494875,2 C23.9787874,2 24.678217,2.28973136 25.1939099,2.80545649 C25.7096028,3.32118162 25.9993161,4.02065499 25.9993161,4.75000046 L26,8.2555635 C23.7610045,10.6325271 20.8116646,12.2193407 17.594465,12.7779392 C17.2078368,11.675563 16.1671156,10.9376636 14.9989706,10.9376636 C13.8308256,10.9376636 12.7901044,11.675563 12.4034761,12.7779392 C9.18696526,12.2190617 6.23836568,10.6322571 4,8.2555635 L4.00068748,4.75000046 C4.00068747,4.02065499 4.29040072,3.32118162 4.80609361,2.80545649 C5.3217865,2.28973136 6.02121616,2 6.75051604,2 L23.2494875,2 Z" id="形状" fill="#377FFC" fill-rule="nonzero"></path>
                    <g id="编组" transform="translate(20.000000, 20.000000)" fill="#ABC6F6" fill-rule="nonzero">
                        <path d="M7.72137329,2.97228286 L6.28934312,4.4021962 C5.91784084,4.77369849 5.31454654,4.77369849 4.94304425,4.4021962 L4.53978964,3.99894159 L5.75061189,2.78811934 C5.89878944,2.63782497 5.89878944,2.39756565 5.75061189,2.24938811 C5.60243435,2.10121056 5.36005821,2.10121056 5.21188066,2.24938811 L4,3.46021036 L3.59674539,3.05695575 C3.2252431,2.68545346 3.2252431,2.08215916 3.59674539,1.71065688 L5.02665873,0.278626712 C5.40027783,-0.0928755705 6.00145532,-0.0928755705 6.3729576,0.278626712 L7.72137329,1.6270424 C8.09287557,1.99748627 8.09287557,2.59866376 7.72137329,2.97228286 Z M4.40431303,6.28828471 L2.97334127,7.72031488 C2.59972217,8.09181716 1.99854468,8.09181716 1.6270424,7.72031488 L0.278626712,6.37189919 C-0.0928755705,6.0003969 -0.0928755705,5.39816101 0.278626712,5.02560032 L1.71065688,3.59568697 C2.08215916,3.22418469 2.68545346,3.22418469 3.05695575,3.59568697 L3.46021036,3.99894159 L2.24938811,5.20976384 C2.10121056,5.36005821 2.10121056,5.60031752 2.24938811,5.74849507 C2.32347688,5.82258385 2.4208507,5.86068664 2.51822452,5.86068664 C2.61559833,5.86068664 2.71403056,5.82258385 2.78917775,5.74849507 L4,4.53661441 L4.40325461,4.94092743 C4.77581531,5.31348813 4.77581531,5.91678243 4.40431303,6.28828471 Z" id="形状"></path>
                    </g>
                </g>
            </g>
        </g>
    </g>
</svg>