<?xml version="1.0" encoding="UTF-8"?>
<svg width="20px" height="20px" viewBox="0 0 20 20" version="1.1" xmlns="http://www.w3.org/2000/svg" xmlns:xlink="http://www.w3.org/1999/xlink">
    <title>tg</title>
    <g id="DAPP整合" stroke="none" stroke-width="1" fill="none" fill-rule="evenodd">
        <g id="点击dapp侧边栏备份" transform="translate(-16.000000, -540.000000)" fill-rule="nonzero">
            <g id="批量转账备份-5" transform="translate(0.000000, 528.000000)">
                <g id="tg" transform="translate(16.000000, 12.000000)">
                    <rect id="矩形" x="0" y="0" width="20" height="20"></rect>
                    <g id="编组">
                        <path d="M0,10 C0,15.5228475 4.4771525,20 10,20 C15.5228475,20 20,15.5228475 20,10 C20,4.4771525 15.5228475,0 10,0 C4.4771525,0 0,4.4771525 0,10 Z" id="路径" fill="#FFFFFF"></path>
                        <path d="M13.27,14.5875 L14.9108333,6.8525 C15.0558333,6.1725 14.665,5.90416666 14.2191667,6.07166666 L4.575,9.78833334 C3.91666666,10.0441667 3.9275,10.4133333 4.46333334,10.58 L6.93,11.35 L12.655,7.745 C12.9233333,7.56666666 13.1691667,7.6675 12.9683333,7.845 L8.33666666,12.0308333 L8.15833334,14.5758333 C8.415,14.5758333 8.52666668,14.4641667 8.66083334,14.33 L9.86583334,13.1691667 L12.3658333,15.0108333 C12.8241667,15.2675 13.1466667,15.1333333 13.27,14.5858333 L13.2691667,14.5875 L13.27,14.5875 Z M20,10 C20,15.525 15.525,20 10,20 C4.475,20 0,15.525 0,10 C0,4.475 4.475,0 10,0 C15.525,0 20,4.475 20,10 Z" id="形状" fill="#D9D9D9"></path>
                    </g>
                </g>
            </g>
        </g>
    </g>
</svg>