<?xml version="1.0" encoding="UTF-8"?>
<svg width="20px" height="20px" viewBox="0 0 20 20" version="1.1" xmlns="http://www.w3.org/2000/svg" xmlns:xlink="http://www.w3.org/1999/xlink">
    <title>twitter</title>
    <g id="DAPP整合" stroke="none" stroke-width="1" fill="none" fill-rule="evenodd">
        <g id="点击dapp侧边栏备份" transform="translate(-16.000000, -680.000000)" fill-rule="nonzero">
            <g id="批量转账备份-6" transform="translate(0.000000, 647.000000)">
                <g id="twitter" transform="translate(16.000000, 33.000000)">
                    <path d="M0,10 C0,15.5228475 4.4771525,20 10,20 C15.5228475,20 20,15.5228475 20,10 C20,4.4771525 15.5228475,0 10,0 C4.4771525,0 0,4.4771525 0,10 Z" id="路径" fill="#FFFFFF"></path>
                    <path d="M20,10 C20,4.4775 15.5225,0 10,0 C4.4775,0 0,4.4775 0,10 C0,15.5225 4.4775,20 10,20 C15.5225,20 20,15.5225 20,10 Z M4.61583334,13.5533333 C5.79298571,13.7002824 6.97815615,13.3503174 7.88666666,12.5875 C6.91916666,12.5658333 6.10333332,11.8816667 5.8225,10.9433333 C6.15281859,11.0128748 6.49506085,11.0014381 6.82,10.91 C5.80916666,10.6866667 5.0475,9.72666666 5.0475,8.585 L5.0475,8.55416666 C5.34583334,8.73416666 5.68583334,8.84333332 6.0475,8.86 C5.45583334,8.43166666 5.06666666,7.70416666 5.06666666,6.88666666 C5.06666666,6.45333332 5.175,6.05 5.36583334,5.70416666 C6.45583334,7.14583332 8.08333334,8.10166666 9.91916666,8.22083334 C9.88062295,8.04568195 9.86134176,7.86684191 9.86166666,7.6875 C9.86166666,6.39583334 10.8508333,5.36416666 12.0708333,5.38416666 C12.6918005,5.39884761 13.2775757,5.67553935 13.6833333,6.14583334 C14.179731,6.05062192 14.6550315,5.8671627 15.0866667,5.60416666 C14.9276359,6.13141365 14.5818943,6.58262561 14.1141667,6.87333334 C14.5527807,6.82503179 14.9810691,6.70804693 15.3833333,6.52666666 C15.0897506,6.98449342 14.7163217,7.38586595 14.2808333,7.71166666 C14.2858333,7.81166666 14.2875,7.91166666 14.2875,8.01166666 C14.2875,11.0783333 12.0641667,14.6166667 8.00083334,14.614168 C6.79088409,14.6129556 5.61005904,14.242894 4.61583334,13.5533333 L4.61583334,13.5533333 Z" id="形状" fill="#D9D9D9"></path>
                </g>
            </g>
        </g>
    </g>
</svg>