<?xml version="1.0" encoding="UTF-8"?>
<svg width="24px" height="24px" viewBox="0 0 24 24" version="1.1" xmlns="http://www.w3.org/2000/svg" xmlns:xlink="http://www.w3.org/1999/xlink">
    <title>钱包</title>
    <g id="红包" stroke="none" stroke-width="1" fill="none" fill-rule="evenodd">
        <g id="01创建红包-未连接钱包" transform="translate(-14.000000, -99.000000)">
            <g id="钱包" transform="translate(14.000000, 99.000000)">
                <path d="M12,0 C18.627,0 24,5.373 24,12 C24,18.627 18.627,24 12,24 C5.373,24 0,18.627 0,12 C0,5.373 5.373,0 12,0 Z" id="路径" fill="#E6EFFF"></path>
                <g id="编组-10" transform="translate(5.333333, 4.666667)" fill-rule="nonzero">
                    <path d="M3.02628148,3.41364197 L10.8308107,3.41364197 C11.1521396,3.41364197 11.4705737,3.46864422 11.7745335,3.572859 C11.762954,3.55259501 11.7542695,3.53233103 11.7426901,3.51206704 L10.2778934,0.976174013 C9.73863886,0.0430888926 8.54552116,-0.276889473 7.61173189,0.261144814 L2.82364162,3.02573139 C2.60652749,3.15021016 2.41546706,3.31811175 2.26203974,3.5149619 C2.51389213,3.44838023 2.76863938,3.41364197 3.02628148,3.41364197" id="路径" fill="#3F80F7" opacity="0.39775"></path>
                    <path d="M2.10455963,3.70891719 L11.643107,3.70891719 C12.8054232,3.70891719 13.7476667,4.65116063 13.7476667,5.81347681 L13.7476667,11.3715985 C13.7476667,12.5339147 12.8054232,13.4761582 11.643107,13.4761582 L2.10455963,13.4761582 C0.94224344,13.4761582 0,12.5339147 0,11.3715985 L0,5.81347681 C0,4.65263994 0.943722749,3.70891719 2.10455963,3.70891719 L2.10455963,3.70891719 Z" id="路径" fill="#3F80F7"></path>
                    <path d="M9.95251169,6.96562913 L13.3887046,6.96562913 L13.3887046,10.2223411 L9.95251169,10.2223411 C9.05221176,10.2223411 8.32560314,9.49283759 8.32270829,8.59543252 C8.32270829,7.69531696 9.05239613,6.96562913 9.95251169,6.96562913 L9.95251169,6.96562913 Z" id="路径" fill="#F9FBFE"></path>
                    <path d="M9.04642205,8.59543252 C9.04642205,9.09585201 9.53244859,9.50152216 10.1319927,9.50152216 C10.7315368,9.50152216 11.2175633,9.09585201 11.2175633,8.59543252 C11.2175633,8.09501304 10.7315368,7.68934289 10.1319927,7.68934289 C9.53244859,7.68934289 9.04642205,8.09501304 9.04642205,8.59543252 L9.04642205,8.59543252 Z" id="路径" fill="#3F80F7"></path>
                </g>
            </g>
        </g>
    </g>
</svg>